<svg width="644" height="136" viewBox="0 0 644 136" fill="none" xmlns="http://www.w3.org/2000/svg">
<g clip-path="url(#clip0_101_125)">
<path d="M321.237 29.5652H235.205V73.0547H321.237V29.5652Z" fill="#EF305E"/>
<path d="M49.2156 46.3506C49.2156 48.6396 51.1232 50.547 53.4123 50.547H99.1943C101.483 50.547 103.391 52.4544 103.391 54.7433V81.4474C103.391 83.7363 101.483 85.6438 99.1943 85.6438H53.4123C51.1232 85.6438 49.2156 87.5512 49.2156 89.8401C49.2156 92.129 51.1232 94.0365 53.4123 94.0365H104.536C106.825 94.0365 108.732 95.9439 108.732 98.2328V128.561C108.732 130.85 106.825 132.757 104.536 132.757H4.19668C1.90758 132.757 0 130.85 0 128.561V7.62973C0 5.34081 1.90758 3.43338 4.19668 3.43338H104.536C106.825 3.43338 108.732 5.34081 108.732 7.62973V38.1487C108.732 40.4376 106.825 42.345 104.536 42.345H53.4123C51.1232 42.1543 49.2156 44.0617 49.2156 46.3506Z" fill="#F2F2F2"/>
<path d="M213.84 73.8177V88.5049C213.84 93.655 209.643 97.8513 204.493 97.8513H132.577C127.427 97.8513 123.23 93.655 123.23 88.5049V73.8177C123.23 68.6676 127.427 64.4713 132.577 64.4713H204.493C209.643 64.4713 213.84 68.6676 213.84 73.8177Z" fill="#F2F2F2"/>
<path d="M508.18 68.0954C508.18 107.579 478.613 136.191 435.501 136.191C392.39 136.191 362.822 107.579 362.822 68.0954C362.822 28.6115 392.39 0 435.501 0C478.613 0 508.18 28.6115 508.18 68.0954ZM456.675 68.0954C456.675 56.0785 448.473 46.3506 435.501 46.3506C422.53 46.3506 414.327 56.0785 414.327 68.0954C414.327 80.1122 423.865 89.8401 435.501 89.8401C447.137 89.8401 456.675 79.9215 456.675 68.0954Z" fill="#F2F2F2"/>
<path d="M526.493 89.0771H560.257C562.928 89.0771 565.408 90.7938 566.361 93.2735C568.46 98.6143 574.946 100.522 580.096 100.522C586.963 100.522 590.206 98.2328 590.206 94.2272C590.206 88.1234 582.004 86.979 567.697 82.9734C537.366 74.5806 524.013 65.8064 524.013 44.6339C524.204 2.09818 562.737 0 583.72 0C608.137 0 635.416 8.77419 639.613 36.6227C640.185 40.6283 637.133 44.2525 633.127 44.2525H599.935C597.264 44.2525 594.784 42.5358 593.831 40.0561C592.114 36.2412 588.108 34.1431 583.53 34.1431C577.807 34.1431 574.183 36.2412 574.183 41.2006C574.183 47.6858 587.726 50.3562 600.126 53.4081C612.525 56.2693 644 59.7027 644 91.1753C644 127.989 618.057 136.191 584.674 136.191C542.135 136.191 523.822 115.972 520.007 96.8976C519.244 92.7013 522.296 89.0771 526.493 89.0771Z" fill="#F2F2F2"/>
<path d="M279.27 104.527C271.64 104.527 264.2 104.718 256.57 104.527C249.512 104.337 245.506 100.331 245.315 93.2735C245.315 92.129 245.315 90.7938 245.315 89.6494C245.697 84.1178 245.697 79.54 238.639 77.251C233.107 75.5344 230.436 69.8121 230.436 63.899C230.245 56.2693 230.245 48.8303 230.436 41.2006C230.627 33.7616 234.442 28.6115 241.309 26.1318C244.552 24.9874 245.506 23.0799 245.315 20.028C245.124 16.9762 245.124 13.9243 245.315 10.8724C245.506 5.53155 249.512 0.762971 254.853 0.762971C272.021 0.572228 289.19 -0.381489 305.976 1.52594C330.775 4.38709 351.949 28.0393 349.278 58.3675C346.989 83.3548 324.861 104.146 298.918 104.718C292.623 104.527 285.947 104.527 279.27 104.527ZM278.126 31.8541C278.126 32.0449 258.478 32.0449 248.558 32.2356C241.882 32.4264 238.639 36.432 238.448 42.9172C238.448 49.2118 238.448 55.5063 238.448 61.8008C238.448 67.9046 241.5 71.7195 247.414 71.9102C267.634 72.4825 287.664 72.864 307.884 72.864C314.56 72.864 317.803 68.6676 317.994 61.9916C317.994 56.0785 317.994 49.9748 317.994 44.0617C317.994 35.4783 314.37 31.6634 305.595 31.6634C296.438 31.8541 287.282 31.8541 278.126 31.8541Z" fill="#F2F2F2"/>
<path d="M300.635 37.5764C300.635 46.9229 300.635 55.8878 300.444 64.662C300.444 65.2342 298.918 66.5694 298.155 66.5694C295.103 66.1879 290.716 60.8471 290.716 57.6045C290.716 54.5526 290.716 51.5007 290.716 48.4488C290.716 42.9172 293.577 39.4839 300.635 37.5764Z" fill="#F2F2F2"/>
<path d="M263.628 37.5764C272.212 40.4376 273.738 44.0617 272.975 57.7952C272.784 61.9916 269.16 65.6157 263.628 66.7602C263.628 57.0322 263.628 47.6858 263.628 37.5764Z" fill="#F2F2F2"/>
<path d="M270.877 36.432C278.316 36.432 285.184 36.432 292.814 36.432C290.143 41.3913 286.519 42.345 282.131 42.345C277.553 42.345 273.547 41.582 270.877 36.432Z" fill="#F2F2F2"/>
<path d="M292.623 68.2861C285.184 68.2861 278.507 68.2861 271.068 68.2861C273.166 63.7083 276.409 62.3731 280.606 62.3731C285.374 62.1823 289.762 62.3731 292.623 68.2861Z" fill="#F2F2F2"/>
<path d="M269.923 132.567H252.755C248.749 132.567 245.506 129.324 245.506 125.318V89.4586H277.362V125.318C277.172 129.324 273.929 132.567 269.923 132.567Z" fill="#F2F2F2"/>
</g>
<defs>
<clipPath id="clip0_101_125">
<rect width="644" height="136" fill="white"/>
</clipPath>
</defs>
</svg>
