<svg width="37" height="36" viewBox="0 0 37 36" fill="none" xmlns="http://www.w3.org/2000/svg">
<g clip-path="url(#clip0_256_13838)">
<path d="M6.3584 24.8659C9.47928 24.8659 12.5474 24.8659 15.6419 24.8659C15.6419 24.7165 15.6419 24.5934 15.6419 24.4615C15.6419 23.0286 15.6507 21.6044 15.6331 20.1714C15.5716 14.5099 11.6419 14.0176 11.3518 13.9824C11.0265 13.956 10.7013 13.9648 10.3672 14.0176C7.93203 14.4132 6.3584 16.2857 6.3584 18.7648C6.3584 20.6725 6.3584 22.5802 6.3584 24.4967C6.3584 24.6198 6.3584 24.7429 6.3584 24.8659ZM9.9628 18.0967C10.6485 18.0967 11.3166 18.0967 12.0111 18.0967C12.0111 18.7648 12.0111 19.433 12.0111 20.1363C11.343 20.1363 10.6661 20.1363 9.9628 20.1363C9.9628 19.4506 9.9628 18.7912 9.9628 18.0967Z" fill="#3E97FF"/>
<path d="M4.81982 31.7319C8.98686 31.7319 13.1363 31.7319 17.3033 31.7319C17.3033 30.1495 17.3033 28.5846 17.3033 27.011C13.1363 27.011 8.99565 27.011 4.81982 27.011C4.81982 28.5934 4.81982 30.1495 4.81982 31.7319Z" fill="#3E97FF"/>
<path d="M27.2894 7.80628C27.3413 7.79383 27.3651 7.79251 27.3792 7.78694C28.7154 6.4861 30.0488 5.17823 31.3822 3.87037C31.3739 3.84931 31.3683 3.83527 31.36 3.81421C31.2873 3.75369 31.2048 3.68892 31.1363 3.61859C30.0842 2.54117 29.032 1.46375 27.9869 0.383554C27.8961 0.297731 27.7954 0.20767 27.6333 0.0445004C27.5737 0.263016 27.5031 0.412798 27.497 0.56139C27.4343 2.57587 27.3813 4.59458 27.3186 6.60906C27.3046 7.00438 27.2977 7.39692 27.2894 7.80628Z" fill="#3E97FF"/>
<path d="M14.6955 20.4781C14.6232 20.2956 14.6166 20.1764 14.7811 20.0381C15.0074 19.851 15.1932 19.6231 15.4098 19.4318C15.5672 19.2963 15.6182 19.138 15.6259 18.9319C15.6519 17.8497 15.685 16.7646 15.718 15.6796C15.7574 14.3646 15.7898 13.0525 15.8322 11.6632C15.7071 11.7778 15.6297 11.849 15.5594 11.9175C13.9827 13.4517 12.4087 14.9929 10.8264 16.513C10.7083 16.6248 10.5216 16.7069 10.3617 16.7134C10.0041 16.7332 9.66047 16.7882 9.32646 16.888C9.55518 16.8299 12.8555 15.9772 14.6955 20.4781Z" fill="#3E97FF"/>
<path d="M22.4015 12.6255C23.3523 11.7048 24.2497 10.8132 25.1723 9.94425C25.3538 9.76679 25.4301 9.59039 25.4379 9.34367C25.4643 8.13943 25.5048 6.92963 25.541 5.72963C25.5757 4.54645 25.6035 3.36606 25.6413 2.10858C24.675 3.05174 23.7635 3.94881 22.8395 4.83462C22.6623 5.00228 22.593 5.1759 22.5894 5.41282C22.5257 7.71191 22.462 10.011 22.3983 12.3101C22.384 12.3969 22.3963 12.4895 22.4015 12.6255Z" fill="#3E97FF"/>
<path d="M17.5056 17.3832C17.6124 17.284 17.6828 17.2155 17.7531 17.147C18.604 16.3227 19.4522 15.4913 20.3059 14.6739C20.4536 14.5342 20.5172 14.3872 20.5221 14.1741C20.5802 11.861 20.6481 9.55213 20.7161 7.24325C20.7178 7.14512 20.7125 7.04976 20.7157 6.93481C20.6623 6.96407 20.6342 6.9752 20.616 6.99056C19.6764 7.89875 18.7369 8.80695 17.8099 9.7264C17.7283 9.80745 17.6886 9.95312 17.6882 10.0751C17.6131 12.4274 17.5521 14.7742 17.484 17.1237C17.4809 17.198 17.4947 17.2738 17.5056 17.3832Z" fill="#3E97FF"/>
</g>
<defs>
<clipPath id="clip0_256_13838">
<rect width="36" height="36" fill="white" transform="translate(0.5)"/>
</clipPath>
</defs>
</svg>
