<svg width="43" height="42" viewBox="0 0 43 42" fill="none" xmlns="http://www.w3.org/2000/svg">
<rect x="0.5" width="42" height="42" rx="21" fill="#FFEBF1"/>
<g clip-path="url(#clip0_256_13866)">
<path d="M7.78711 26.5122C10.398 26.5122 12.9648 26.5122 15.5537 26.5122C15.5537 26.3872 15.5537 26.2842 15.5537 26.1739C15.5537 24.9751 15.5611 23.7836 15.5464 22.5848C15.4949 17.8483 12.2073 17.4365 11.9646 17.407C11.6925 17.3923 11.4204 17.3997 11.1409 17.4438C9.10361 17.7748 7.78711 19.3413 7.78711 21.4154C7.78711 23.0113 7.78711 24.6073 7.78711 26.2107C7.78711 26.3063 7.78711 26.4092 7.78711 26.5122ZM10.8026 20.8491C11.3762 20.8491 11.9352 20.8491 12.5162 20.8491C12.5162 21.408 12.5162 21.967 12.5162 22.5554C11.9573 22.5554 11.3909 22.5554 10.8026 22.5554C10.8026 21.9817 10.8026 21.4301 10.8026 20.8491Z" fill="black"/>
<path d="M6.5 32.2564C9.98615 32.2564 13.4576 32.2564 16.9437 32.2564C16.9437 30.9325 16.9437 29.6234 16.9437 28.3069C13.4576 28.3069 9.9935 28.3069 6.5 28.3069C6.5 29.6381 6.5 30.9325 6.5 32.2564Z" fill="black"/>
<path d="M30.9473 23.5115C30.9914 23.5409 31.0061 23.5556 31.0208 23.5556C32.8374 23.5556 34.6541 23.5483 36.478 23.5483C36.4854 23.5335 36.4927 23.5115 36.5001 23.4968C36.4927 23.4012 36.478 23.3055 36.478 23.2099C36.478 21.5992 36.478 20.1283 36.478 18.8118C36.478 18.6868 36.4707 18.5617 36.4707 18.3337C36.2795 18.4441 36.125 18.4955 36.022 18.5985C34.6099 19.9591 33.1978 21.3345 31.7857 22.7025C31.5062 22.9672 31.2341 23.2394 30.9473 23.5115Z" fill="#F1416C"/>
<path d="M13.546 23.6513C13.6195 23.4748 13.6931 23.3865 13.9063 23.4012C14.1858 23.4233 14.4727 23.3939 14.7595 23.4086C14.9654 23.4233 15.1052 23.3498 15.2449 23.21C15.9951 22.4672 16.76 21.7391 17.5175 21.0036C18.4369 20.1137 19.3562 19.2164 20.327 18.275C20.1579 18.2676 20.0623 18.2676 19.9667 18.2676C17.8264 18.2676 15.6788 18.2676 13.5386 18.2603C13.3842 18.2603 13.1929 18.1867 13.0753 18.0838C12.8105 17.8558 12.7664 18.6427 12.4722 18.4883C12.6855 18.5912 15.3258 19.2605 13.546 23.6513Z" fill="black"/>
<path d="M24.2617 23.4086C25.5488 23.4086 26.7844 23.4012 28.0126 23.4159C28.2553 23.4159 28.4319 23.3497 28.6084 23.1732C29.4468 22.3568 30.2926 21.5405 31.1384 20.7241C31.9621 19.9224 32.7932 19.1208 33.6684 18.2676C32.3519 18.2676 31.109 18.275 29.866 18.2603C29.6307 18.2603 29.4615 18.3338 29.2997 18.4956C27.6964 20.0622 26.0857 21.614 24.475 23.1806C24.4088 23.2321 24.3573 23.3056 24.2617 23.4086Z" fill="black"/>
<path d="M17.6133 23.4011C17.753 23.4011 17.8486 23.4084 17.9516 23.4084C19.1063 23.4084 20.261 23.4084 21.4157 23.4158C21.6143 23.4158 21.7614 23.3569 21.9085 23.2172C23.5191 21.6433 25.1372 20.0767 26.7552 18.5102C26.8214 18.444 26.8803 18.3778 26.9612 18.2895C26.9023 18.2748 26.8803 18.2601 26.8508 18.2601C25.5785 18.2601 24.3061 18.2527 23.0337 18.2601C22.9234 18.2601 22.7984 18.341 22.7101 18.4219C21.0627 20.0105 19.4152 21.6065 17.7751 23.2025C17.7236 23.254 17.6868 23.3128 17.6133 23.4011Z" fill="#F1416C"/>
</g>
<defs>
<clipPath id="clip0_256_13866">
<rect width="30" height="30" fill="white" transform="translate(6.5 6)"/>
</clipPath>
</defs>
</svg>
