<svg width="67" height="67" viewBox="0 0 67 67" fill="none" xmlns="http://www.w3.org/2000/svg">
<rect x="0.657715" y="0.885986" width="65.5789" height="65.5789" rx="32.7895" fill="#F8F5FF"/>
<path d="M23.5847 41.1948C23.6935 40.6377 23.7635 40.1037 23.8956 39.5853C24.2843 37.9835 25.0539 36.5907 26.1734 35.3758C27.1917 34.2615 28.3967 33.4103 29.8271 32.9383C30.6744 32.6597 31.5762 32.505 32.4469 32.2806C32.5713 32.2496 32.7423 32.1258 32.7578 32.0329C32.8045 31.7312 32.8045 31.4139 32.7656 31.1121C32.7578 31.027 32.548 30.9264 32.4158 30.9032C31.1564 30.7484 29.9826 30.3538 28.9642 29.6032C26.3833 27.7151 25.256 25.1693 25.8391 22.0354C26.4144 18.9556 28.3267 16.9438 31.3741 16.1313C35.3621 15.0711 39.3657 17.4003 40.524 21.3544C41.6512 25.1925 39.4745 29.2859 35.5953 30.555C35.0978 30.7175 34.5614 30.7949 34.0405 30.8877C33.8073 30.9264 33.6907 31.0038 33.7063 31.2514C33.7218 31.5455 33.613 31.9091 33.7529 32.1181C33.8617 32.2883 34.2582 32.2651 34.5225 32.3347C35.3543 32.5669 36.1939 32.7758 37.0102 33.0389C38.184 33.4181 39.148 34.1609 39.9953 35.0044C41.5812 36.5752 42.553 38.4865 42.8173 40.7228C42.8328 40.8389 42.8484 40.9549 42.8639 41.0633C42.8639 41.0865 42.8872 41.1097 42.9183 41.1638C43.0038 41.1484 43.1049 41.1484 43.1904 41.1174C44.1233 40.7692 45.0561 40.4287 45.989 40.0573C46.9374 39.6859 47.4816 38.649 47.2484 37.6585C47.2251 37.5657 47.0307 37.4651 46.9063 37.4496C45.5226 37.2561 44.2788 36.7222 43.2682 35.755C41.278 33.8437 40.6406 31.5145 41.5113 28.9145C42.3897 26.2836 44.3254 24.7747 47.1007 24.4961C51.1431 24.086 54.5481 27.4443 54.2449 31.4603C54.0194 34.4163 51.8039 36.8538 48.8731 37.3877C48.7565 37.4109 48.6399 37.4496 48.5311 37.4418C48.2668 37.4418 48.2201 37.5734 48.2046 37.8055C48.189 38.2157 48.1813 38.6412 48.0802 39.0281C47.8314 39.9412 47.2406 40.5835 46.3466 40.9317C45.3671 41.3109 44.3954 41.69 43.4003 42.0305C43.0116 42.1621 42.8717 42.3632 42.8328 42.7656C42.5219 45.8144 41.0759 48.2055 38.5183 49.9001C33.0533 53.537 25.4348 50.5656 23.8956 44.2049C23.779 43.7329 23.6935 43.2454 23.6546 42.7579C23.6235 42.371 23.4914 42.1698 23.1104 42.0382C22.1698 41.721 21.2369 41.3496 20.3118 41.0014C18.967 40.4906 18.2906 39.5156 18.2751 38.0686C18.2673 37.5038 18.2673 37.5038 17.7154 37.4032C14.3804 36.8073 12.0871 33.9829 12.2348 30.6401C12.3669 27.6068 14.7457 24.9758 17.7698 24.527C20.9182 24.0628 23.95 25.858 24.9606 28.8062C25.4737 30.3074 25.4659 31.7931 24.8829 33.302C23.95 35.7395 22.1076 37.0008 19.6122 37.4341C19.2935 37.4883 19.2157 37.5966 19.2157 37.8984C19.2157 39.121 19.6122 39.7246 20.7627 40.1656C21.5868 40.4829 22.4108 40.7847 23.2348 41.0942C23.3437 41.1406 23.4525 41.1561 23.5847 41.1948ZM39.8632 23.405C39.8165 19.683 36.8469 16.7735 33.1465 16.8277C29.5317 16.8741 26.5776 19.8765 26.632 23.4515C26.6864 27.1348 29.6716 30.0443 33.3487 29.9978C36.9402 29.9514 39.9098 26.949 39.8632 23.405ZM53.3198 30.996C53.3198 27.924 50.8166 25.4169 47.7537 25.4092C44.6286 25.4014 42.1098 27.9008 42.1254 31.0038C42.1409 34.1377 44.7219 36.5829 47.7459 36.5674C50.7933 36.5597 53.3276 34.0371 53.3198 30.996ZM13.1832 30.9883C13.1676 34.0216 15.7019 36.5829 18.7959 36.5597C21.8278 36.5442 24.3387 34.1764 24.3698 30.996C24.4009 27.9008 21.8744 25.3937 18.7882 25.4014C15.6942 25.4092 13.1832 27.9086 13.1832 30.9883ZM24.5486 41.899C24.5331 46.5882 28.4433 50.5424 33.0999 50.5578C38.0052 50.5733 41.931 46.7275 41.9466 41.9144C41.9544 37.1323 38.0674 33.2246 33.3176 33.2401C28.3112 33.271 24.5875 37.1091 24.5486 41.899Z" fill="#7239EA" stroke="#7239EA" stroke-width="0.206842"/>
<path d="M33.341 34.1455C37.7954 34.1223 41.1149 37.9372 41.0449 42.0383C40.9749 46.2246 37.4611 49.6758 33.2244 49.6526C28.8943 49.6294 25.4349 46.124 25.466 41.783C25.4971 37.6818 28.9099 34.0604 33.341 34.1455ZM40.0887 41.8836C40.1043 38.2854 37.2357 35.0973 33.3177 35.0896C29.0887 35.0818 26.3756 38.4556 26.4144 41.9532C26.4533 45.6907 29.5318 48.7317 33.2866 48.7085C37.0414 48.693 40.112 45.6133 40.0887 41.8836Z" fill="#7239EA" stroke="#7239EA" stroke-width="0.206842"/>
<path d="M30.1766 38.9123C30.0641 39.0208 29.9681 39.1145 29.8813 39.1992C29.7701 39.3077 29.6741 39.4014 29.578 39.4926C29.5003 39.57 29.423 39.6479 29.3458 39.7257C29.114 39.9593 28.8823 40.1929 28.6374 40.4135C28.4275 40.6069 28.1787 40.6146 27.9766 40.4135C27.7745 40.2045 27.8056 39.9724 27.9766 39.748C28.0056 39.7075 28.039 39.6757 28.0735 39.6428C28.0852 39.6317 28.097 39.6204 28.1088 39.6087C28.4547 39.2605 28.8026 38.9142 29.1505 38.5679C29.4983 38.2216 29.8462 37.8754 30.1922 37.5272C30.5653 37.1635 30.7752 37.1635 31.1406 37.5272C31.6119 37.9912 32.0798 38.4586 32.5488 38.9271C32.7837 39.1619 33.019 39.3969 33.2551 39.6319C33.5427 39.9182 33.5738 40.1968 33.3639 40.4057C33.1385 40.6224 32.8897 40.5992 32.5865 40.3051C32.3481 40.073 32.1097 39.834 31.8714 39.595C31.7521 39.4755 31.6329 39.3559 31.5137 39.2373C31.4282 39.1522 31.3349 39.067 31.1639 38.9123C31.1587 38.9904 31.1534 39.0571 31.1488 39.1163C31.1396 39.233 31.1328 39.3202 31.1328 39.4075V44.4372C31.1328 44.4717 31.1355 44.5083 31.1381 44.545C31.1457 44.6486 31.1533 44.7536 31.1017 44.8164C30.9851 44.9634 30.8141 45.1337 30.6508 45.1414C30.5187 45.1491 30.3321 44.9712 30.231 44.8319C30.1775 44.7549 30.1831 44.6371 30.1887 44.5202C30.1904 44.4843 30.1922 44.4485 30.1922 44.414V39.4617C30.2045 39.3573 30.1973 39.2432 30.186 39.0653C30.183 39.019 30.1798 38.9683 30.1766 38.9123Z" fill="#7239EA"/>
<path d="M30.1766 38.9123C30.0641 39.0208 29.9681 39.1145 29.8813 39.1992C29.7701 39.3077 29.6741 39.4014 29.578 39.4926C29.5003 39.57 29.423 39.6479 29.3458 39.7257C29.114 39.9593 28.8823 40.1929 28.6374 40.4135C28.4275 40.6069 28.1787 40.6146 27.9766 40.4135C27.7745 40.2045 27.8056 39.9724 27.9766 39.748C28.0056 39.7075 28.039 39.6757 28.0735 39.6428C28.0852 39.6317 28.097 39.6204 28.1088 39.6087C28.4547 39.2605 28.8026 38.9142 29.1505 38.5679C29.4983 38.2216 29.8462 37.8754 30.1922 37.5272C30.5653 37.1635 30.7752 37.1635 31.1406 37.5272C31.6119 37.9912 32.0798 38.4586 32.5488 38.9271C32.7837 39.1619 33.019 39.3969 33.2551 39.6319C33.5427 39.9182 33.5738 40.1968 33.3639 40.4057C33.1385 40.6224 32.8897 40.5992 32.5865 40.3051C32.3481 40.073 32.1097 39.834 31.8714 39.595C31.7521 39.4755 31.6329 39.3559 31.5137 39.2373C31.4282 39.1522 31.3349 39.067 31.1639 38.9123C31.1587 38.9904 31.1534 39.0571 31.1488 39.1163C31.1396 39.233 31.1328 39.3202 31.1328 39.4075V44.4372C31.1328 44.4717 31.1355 44.5083 31.1381 44.545C31.1457 44.6486 31.1533 44.7536 31.1017 44.8164C30.9851 44.9634 30.8141 45.1337 30.6508 45.1414C30.5187 45.1491 30.3321 44.9712 30.231 44.8319C30.1775 44.7549 30.1831 44.6371 30.1887 44.5202C30.1904 44.4843 30.1922 44.4485 30.1922 44.414V39.4617C30.2045 39.3573 30.1973 39.2432 30.186 39.0653C30.183 39.019 30.1798 38.9683 30.1766 38.9123Z" stroke="#7239EA"/>
<path d="M36.4426 44.8084C36.6253 44.6188 36.808 44.4312 36.9907 44.2435C37.1734 44.0559 37.3561 43.8682 37.5387 43.6786C37.5622 43.6553 37.5851 43.632 37.608 43.6088C37.676 43.5396 37.7429 43.4715 37.8186 43.4078C38.0518 43.1911 38.3161 43.1447 38.5416 43.3769C38.7515 43.5935 38.7048 43.8489 38.4949 44.0655C38.277 44.2877 38.0555 44.5063 37.8353 44.7239C37.7256 44.8322 37.6162 44.9402 37.5076 45.0483C37.3703 45.185 37.2338 45.3225 37.0974 45.4601C36.8244 45.7352 36.5515 46.0104 36.2716 46.2786C35.9606 46.5804 35.7119 46.5804 35.4009 46.2786L33.232 44.1197C32.9988 43.8876 32.9055 43.6477 33.1309 43.3691C33.3175 43.1447 33.6285 43.1834 33.9083 43.462C34.1736 43.7261 34.4362 43.9957 34.6992 44.2659C34.8755 44.447 35.0521 44.6283 35.2299 44.8084L35.2299 44.8084C35.2688 44.7929 35.3076 44.7774 35.3465 44.7542C35.3492 44.7093 35.3527 44.6652 35.3563 44.6214C35.3631 44.5371 35.3698 44.4539 35.3698 44.3673V39.415C35.3698 39.2834 35.3698 39.1596 35.3776 39.0281C35.4009 38.7572 35.5564 38.5947 35.8285 38.5947C36.1006 38.587 36.256 38.7495 36.2871 39.0203C36.2988 39.1074 36.2973 39.1944 36.2959 39.2815C36.2954 39.3105 36.2949 39.3395 36.2949 39.3686V44.2822V44.731C36.3416 44.762 36.3882 44.7852 36.4426 44.8084Z" fill="#7239EA"/>
<path d="M36.4426 44.8084C36.6253 44.6188 36.808 44.4312 36.9907 44.2435C37.1734 44.0559 37.3561 43.8682 37.5387 43.6786C37.5622 43.6553 37.5851 43.632 37.608 43.6088C37.676 43.5396 37.7429 43.4715 37.8186 43.4078C38.0518 43.1911 38.3161 43.1447 38.5416 43.3769C38.7515 43.5935 38.7048 43.8489 38.4949 44.0655C38.277 44.2877 38.0555 44.5063 37.8353 44.7239C37.7256 44.8322 37.6162 44.9402 37.5076 45.0483C37.3703 45.185 37.2338 45.3225 37.0974 45.4601C36.8244 45.7352 36.5515 46.0104 36.2716 46.2786C35.9606 46.5804 35.7119 46.5804 35.4009 46.2786L33.232 44.1197C32.9988 43.8876 32.9055 43.6477 33.1309 43.3691C33.3175 43.1447 33.6285 43.1834 33.9083 43.462C34.1736 43.7261 34.4362 43.9957 34.6992 44.2659C34.8755 44.447 35.0521 44.6283 35.2299 44.8084L35.2299 44.8084C35.2688 44.7929 35.3076 44.7774 35.3465 44.7542C35.3492 44.7093 35.3527 44.6652 35.3563 44.6214C35.3631 44.5371 35.3698 44.4539 35.3698 44.3673V39.415C35.3698 39.2834 35.3698 39.1596 35.3776 39.0281C35.4009 38.7572 35.5564 38.5947 35.8285 38.5947C36.1006 38.587 36.256 38.7495 36.2871 39.0203C36.2988 39.1074 36.2973 39.1944 36.2959 39.2815C36.2954 39.3105 36.2949 39.3395 36.2949 39.3686V44.2822V44.731C36.3416 44.762 36.3882 44.7852 36.4426 44.8084Z" stroke="#7239EA"/>
<path d="M17.4358 32.6135C17.7312 32.7992 18.0499 32.9075 18.3842 32.9462C18.6252 32.9772 18.8661 32.9617 19.0916 32.8688C19.6435 32.6522 19.7835 31.979 19.3404 31.5843C19.1849 31.4373 18.9828 31.3367 18.7884 31.2361C18.5085 31.0891 18.2054 30.973 17.9333 30.8105C17.4979 30.5552 17.2647 30.1605 17.3191 29.6421C17.3736 29.1081 17.669 28.7522 18.1665 28.551C18.2598 28.5123 18.3608 28.4814 18.4619 28.4581C18.5396 28.4427 18.5552 28.4117 18.5552 28.3343C18.5552 28.1022 18.5552 27.8623 18.5552 27.6224C18.7262 27.6224 18.8817 27.6224 19.0605 27.6224C19.0605 27.8778 19.0605 28.1331 19.0605 28.3962C19.1771 28.4117 19.2859 28.4117 19.387 28.4349C19.6124 28.4968 19.8379 28.5742 20.0556 28.6516C20.0789 28.6593 20.1177 28.7212 20.11 28.7445C20.0556 28.8992 19.9934 29.054 19.9312 29.2242C19.8845 29.201 19.8379 29.1855 19.799 29.1623C19.4181 28.9766 19.0139 28.907 18.6018 28.9921C18.1199 29.0927 17.8866 29.5724 18.1043 29.9825C18.1976 30.1605 18.3608 30.2689 18.5319 30.354C18.8195 30.4933 19.1071 30.6248 19.4025 30.7563C19.4881 30.795 19.5736 30.8492 19.6513 30.9034C20.1722 31.2361 20.4054 31.7159 20.2965 32.3272C20.1877 32.9385 19.7835 33.2867 19.2004 33.4492C19.0216 33.4956 19.0216 33.4956 19.0216 33.6813C19.0216 33.898 19.0216 34.1069 19.0216 34.3313C18.8428 34.3313 18.6873 34.3313 18.5085 34.3313C18.5085 34.0605 18.5085 33.7974 18.5085 33.5188C18.3764 33.5034 18.2676 33.4956 18.151 33.4801C17.8633 33.4415 17.5835 33.3486 17.3269 33.2016C17.2647 33.1629 17.2492 33.1242 17.2725 33.0545C17.3269 32.923 17.3736 32.776 17.4358 32.6135Z" fill="#7239EA" stroke="#7239EA" stroke-width="0.413684"/>
<path d="M46.3703 32.6135C46.6657 32.7992 46.9845 32.9075 47.3187 32.9462C47.5597 32.9772 47.8007 32.9617 48.0262 32.8688C48.5781 32.6522 48.718 31.979 48.2749 31.5843C48.1194 31.4373 47.9173 31.3367 47.723 31.2361C47.4431 31.0891 47.1399 30.973 46.8679 30.8105C46.4325 30.5552 46.1993 30.1605 46.2537 29.6421C46.3081 29.1081 46.6035 28.7522 47.1011 28.551C47.1944 28.5123 47.2954 28.4814 47.3965 28.4581C47.4742 28.4427 47.4898 28.4117 47.4898 28.3343C47.4898 28.1022 47.4898 27.8623 47.4898 27.6224C47.6608 27.6224 47.8163 27.6224 47.9951 27.6224C47.9951 27.8778 47.9951 28.1331 47.9951 28.3962C48.1117 28.4117 48.2205 28.4117 48.3216 28.4349C48.547 28.4968 48.7725 28.5742 48.9901 28.6516C49.0134 28.6593 49.0523 28.7212 49.0445 28.7445C48.9901 28.8992 48.9279 29.054 48.8657 29.2242C48.8191 29.201 48.7725 29.1855 48.7336 29.1623C48.3527 28.9766 47.9484 28.907 47.5364 28.9921C47.0544 29.0927 46.8212 29.5724 47.0389 29.9825C47.1322 30.1605 47.2954 30.2689 47.4664 30.354C47.7541 30.4933 48.0417 30.6248 48.3371 30.7563C48.4226 30.795 48.5081 30.8492 48.5859 30.9034C49.1067 31.2361 49.3399 31.7159 49.2311 32.3272C49.1223 32.9385 48.718 33.2867 48.135 33.4492C47.9562 33.4956 47.9562 33.4956 47.9562 33.6813C47.9562 33.898 47.9562 34.1069 47.9562 34.3313C47.7774 34.3313 47.6219 34.3313 47.4431 34.3313C47.4431 34.0605 47.4431 33.7974 47.4431 33.5188C47.311 33.5034 47.2021 33.4956 47.0855 33.4801C46.7979 33.4415 46.518 33.3486 46.2615 33.2016C46.1993 33.1629 46.1837 33.1242 46.2071 33.0545C46.2615 32.923 46.3159 32.776 46.3703 32.6135Z" fill="#7239EA" stroke="#7239EA" stroke-width="0.413684"/>
<path d="M31.5294 25.0531C31.9103 25.293 32.3068 25.4246 32.7343 25.4787C33.0453 25.5174 33.3407 25.5019 33.6361 25.3859C34.3357 25.1073 34.5145 24.2561 33.9548 23.7454C33.7527 23.5597 33.4962 23.4281 33.2474 23.3043C32.8898 23.1109 32.5011 22.9716 32.1591 22.7627C31.6071 22.4299 31.3117 21.9347 31.3739 21.277C31.4439 20.596 31.8248 20.1472 32.4467 19.8841C32.5711 19.8377 32.6955 19.799 32.8276 19.768C32.9209 19.7448 32.952 19.7061 32.9442 19.6133C32.9364 19.3115 32.9442 19.0175 32.9442 18.7002C33.1619 18.7002 33.364 18.7002 33.5895 18.7002C33.5895 19.0252 33.5895 19.3502 33.5895 19.6907C33.7372 19.7061 33.8771 19.7061 34.0092 19.7448C34.2969 19.8222 34.5767 19.9228 34.8644 20.0234C34.8955 20.0389 34.9421 20.1085 34.9343 20.1395C34.8644 20.3407 34.7866 20.5341 34.7089 20.7508C34.6467 20.7198 34.5923 20.6966 34.5379 20.6734C34.0559 20.4335 33.5428 20.3407 33.0064 20.4567C32.3923 20.5805 32.0891 21.1996 32.369 21.7103C32.4933 21.9347 32.6877 22.074 32.9131 22.1823C33.2785 22.3603 33.6516 22.5228 34.017 22.7008C34.1259 22.7549 34.2347 22.8168 34.3358 22.8865C35.0043 23.3121 35.2997 23.9234 35.1598 24.7049C35.0199 25.4865 34.5068 25.9275 33.7605 26.1287C33.535 26.1906 33.535 26.1829 33.535 26.4228C33.535 26.6936 33.535 26.9644 33.535 27.2507C33.3096 27.2507 33.1075 27.2507 32.882 27.2507C32.882 26.9103 32.882 26.5698 32.882 26.2216C32.7188 26.2061 32.5711 26.1906 32.4311 26.1752C32.058 26.121 31.7082 26.0127 31.3817 25.8269C31.2962 25.7805 31.2806 25.7341 31.3195 25.6412C31.3894 25.44 31.4594 25.2543 31.5294 25.0531Z" fill="#7239EA" stroke="#7239EA" stroke-width="0.413684"/>
</svg>
