<svg width="67" height="66" viewBox="0 0 67 66" fill="none" xmlns="http://www.w3.org/2000/svg">
<rect x="0.763184" y="0.105225" width="65.5789" height="65.5789" rx="32.7895" fill="#FFF8DD"/>
<path d="M14.6775 29.0533C15.8301 29.0533 16.9309 29.0533 18.0317 29.0533C19.2879 29.0664 19.4951 29.2632 19.4951 30.5097C19.4951 33.7374 19.4951 36.9782 19.4951 40.2058C19.4951 40.6651 19.4174 41.1636 19.5728 41.5704C20.0002 42.62 19.3785 43.0924 18.4202 43.7878C18.2001 42.6463 17.8892 41.6754 17.8633 40.7044C17.7727 37.7523 17.7468 34.8001 17.7727 31.848C17.7856 30.9033 17.4748 30.5753 16.5683 30.6934C15.9855 30.759 15.3898 30.759 14.807 30.7327C13.5767 30.6934 12.9162 29.9455 12.9421 28.699C12.9551 28.2398 12.9292 27.7806 12.968 27.3345C13.1364 25.3402 14.548 23.8969 16.5294 23.9494C17.5396 23.9756 18.2389 23.6345 18.8864 22.9391C19.8966 21.8763 20.9326 20.8398 21.9687 19.8033C23.1342 18.6093 24.5199 18.0057 26.1776 18.0057C31.1117 18.0189 36.0329 18.0057 40.9671 18.0057C42.6247 18.0057 43.9975 18.6486 45.1501 19.8295C46.3027 20.9972 47.4294 22.1912 48.6467 23.2934C49.0093 23.6214 49.6051 23.8838 50.0972 23.8707C53.4384 23.8575 54.5781 26.3636 54.0341 29.3682C53.8528 30.326 53.1147 30.7327 52.1822 30.7327C51.2498 30.7459 50.3303 30.7327 49.3202 30.7327C49.3202 32.8583 49.3202 34.9182 49.3202 36.9782C49.3202 38.2377 49.3461 39.5104 49.3461 40.77C49.3331 43.1449 47.8438 45.1261 45.7329 45.5853C43.5054 46.0708 41.4203 45.0342 40.4361 42.8562C40.0735 42.0427 39.5684 41.7672 38.7396 41.8197C37.9625 41.8722 37.1726 41.8328 36.1754 41.8328C36.784 41.1243 36.7193 40.1271 37.833 40.1271C39.426 40.1271 40.9671 40.0484 41.8477 41.8459C42.1974 42.5544 42.7542 43.3286 43.4147 43.6828C45.3443 44.7193 47.6236 43.3154 47.6495 41.0718C47.7013 37.9097 47.5977 34.7477 47.5589 31.5856C47.5589 31.4413 47.533 31.3101 47.533 31.1657C47.533 29.132 47.6366 29.0139 49.631 29.0139C50.5245 29.0139 51.4311 29.0139 52.3117 29.0139C52.9981 26.4948 51.729 25.2746 49.8641 25.5632C48.9964 25.6944 48.323 25.3402 47.7272 24.7366C46.5358 23.5164 45.2796 22.3355 44.114 21.1022C43.1946 20.1313 42.1067 19.6589 40.7858 19.6589C35.9941 19.6721 31.2024 19.6721 26.4107 19.6589C25.0379 19.6589 23.9371 20.1313 22.9917 21.1416C21.7614 22.4274 20.5052 23.7001 19.1843 24.8941C18.7699 25.2746 18.0964 25.537 17.5396 25.5501C14.9495 25.6682 14.4185 26.2455 14.6775 29.0533Z" fill="black"/>
<path d="M23.561 42.5282C22.2919 43.8402 21.0616 45.1129 19.8183 46.3988C19.4039 46.8186 18.9377 47.2385 18.3937 46.7268C17.798 46.1626 18.2124 45.6509 18.6528 45.2048C19.909 43.9452 21.1652 42.6856 22.4602 41.3736C20.8802 39.1168 20.1939 36.6764 20.8543 33.9866C21.3076 32.1629 22.3048 30.6015 23.7941 29.5125C27.6016 26.7441 31.9788 27.2951 35.2165 30.8115C37.6382 33.4487 37.6641 38.2115 35.2683 41.2424C32.471 44.7849 28.2102 45.2835 23.561 42.5282ZM28.8189 29.4207C25.3093 29.4469 22.2789 32.5696 22.3048 36.1384C22.3437 39.8122 25.2964 42.7119 28.9484 42.6725C32.5746 42.6331 35.4496 39.6548 35.4107 35.9547C35.3719 32.3859 32.3544 29.3944 28.8189 29.4207Z" fill="black"/>
<path d="M37.7681 38.7758C38.066 36.8864 37.8588 37.162 39.4776 37.1357C39.9567 37.1226 40.4359 37.1357 41.0057 37.1357C41.0057 36.3747 41.0057 35.7056 41.0057 34.9446C40.4877 34.9183 39.9697 34.8003 39.4776 34.8659C38.2343 35.0364 37.6904 34.5247 37.7552 33.1995C39.2186 33.1995 40.7208 33.1602 42.2231 33.2389C42.4173 33.252 42.7411 33.79 42.7541 34.1049C42.8059 35.3644 42.7929 36.6371 42.6893 37.8836C42.6634 38.1985 42.1972 38.7102 41.8993 38.7364C40.5654 38.8283 39.2186 38.7758 37.7681 38.7758Z" fill="black"/>
<path d="M22.2402 45.5197C23.5741 43.7484 23.5741 43.7484 25.5167 44.8768C24.2864 45.2704 23.3151 45.5722 22.3438 45.874C22.305 45.7559 22.2791 45.6378 22.2402 45.5197Z" fill="black"/>
<path d="M34.2584 34.8788C31.4222 34.8788 28.7673 34.8788 26.0477 34.8788C26.0477 35.6398 26.0477 36.2958 26.0477 37.083C28.7414 37.083 31.4222 37.083 34.103 37.083C34.103 38.5263 33.8828 38.7887 32.7043 38.7887C30.3473 38.7887 27.9774 38.7625 25.6204 38.8018C24.6879 38.815 24.2865 38.4738 24.3253 37.5029C24.3771 36.3876 24.3383 35.2593 24.3383 34.1309C24.3383 33.488 24.6491 33.16 25.2966 33.16C27.7961 33.1468 30.2826 33.1206 32.782 33.0944C33.8828 33.0681 33.9864 33.8947 34.2584 34.8788Z" fill="black"/>
<path d="M14.6775 29.0533C15.8301 29.0533 16.9309 29.0533 18.0317 29.0533C19.2879 29.0664 19.4951 29.2632 19.4951 30.5097C19.4951 33.7374 19.4951 36.9782 19.4951 40.2058C19.4951 40.6651 19.4174 41.1636 19.5728 41.5704C20.0002 42.62 19.3785 43.0924 18.4202 43.7878C18.2001 42.6463 17.8892 41.6754 17.8633 40.7044C17.7727 37.7523 17.7468 34.8001 17.7727 31.848C17.7856 30.9033 17.4748 30.5753 16.5683 30.6934C15.9855 30.759 15.3898 30.759 14.807 30.7327C13.5767 30.6934 12.9162 29.9455 12.9421 28.699C12.9551 28.2398 12.9292 27.7806 12.968 27.3345C13.1364 25.3402 14.548 23.8969 16.5294 23.9494C17.5396 23.9756 18.2389 23.6345 18.8864 22.9391C19.8966 21.8763 20.9326 20.8398 21.9687 19.8033C23.1342 18.6093 24.5199 18.0057 26.1776 18.0057C31.1117 18.0189 36.0329 18.0057 40.9671 18.0057C42.6247 18.0057 43.9975 18.6486 45.1501 19.8295C46.3027 20.9972 47.4294 22.1912 48.6467 23.2934C49.0093 23.6214 49.6051 23.8838 50.0972 23.8707C53.4384 23.8575 54.5781 26.3636 54.0341 29.3682C53.8528 30.326 53.1147 30.7327 52.1822 30.7327C51.2498 30.7459 50.3303 30.7327 49.3202 30.7327C49.3202 32.8583 49.3202 34.9182 49.3202 36.9782C49.3202 38.2377 49.3461 39.5104 49.3461 40.77C49.3331 43.1449 47.8438 45.1261 45.7329 45.5853C43.5054 46.0708 41.4203 45.0342 40.4361 42.8562C40.0735 42.0427 39.5684 41.7672 38.7396 41.8197C37.9625 41.8722 37.1726 41.8328 36.1754 41.8328C36.784 41.1243 36.7193 40.1271 37.833 40.1271C39.426 40.1271 40.9671 40.0484 41.8477 41.8459C42.1974 42.5544 42.7542 43.3286 43.4147 43.6828C45.3443 44.7193 47.6236 43.3154 47.6495 41.0718C47.7013 37.9097 47.5977 34.7477 47.5589 31.5856C47.5589 31.4413 47.533 31.3101 47.533 31.1657C47.533 29.132 47.6366 29.0139 49.631 29.0139C50.5245 29.0139 51.4311 29.0139 52.3117 29.0139C52.9981 26.4948 51.729 25.2746 49.8641 25.5632C48.9964 25.6944 48.323 25.3402 47.7272 24.7366C46.5358 23.5164 45.2796 22.3355 44.114 21.1022C43.1946 20.1313 42.1067 19.6589 40.7858 19.6589C35.9941 19.6721 31.2024 19.6721 26.4107 19.6589C25.0379 19.6589 23.9371 20.1313 22.9917 21.1416C21.7614 22.4274 20.5052 23.7001 19.1843 24.8941C18.7699 25.2746 18.0964 25.537 17.5396 25.5501C14.9495 25.6682 14.4185 26.2455 14.6775 29.0533Z" fill="#E9B500"/>
<path d="M23.561 42.5282C22.2919 43.8402 21.0616 45.1129 19.8183 46.3988C19.4039 46.8186 18.9377 47.2385 18.3937 46.7268C17.798 46.1626 18.2124 45.6509 18.6528 45.2048C19.909 43.9452 21.1652 42.6856 22.4602 41.3736C20.8802 39.1168 20.1939 36.6764 20.8543 33.9866C21.3076 32.1629 22.3048 30.6015 23.7941 29.5125C27.6016 26.7441 31.9788 27.2951 35.2165 30.8115C37.6382 33.4487 37.6641 38.2115 35.2683 41.2424C32.471 44.7849 28.2102 45.2835 23.561 42.5282ZM28.8189 29.4207C25.3093 29.4469 22.2789 32.5696 22.3048 36.1384C22.3437 39.8122 25.2964 42.7119 28.9484 42.6725C32.5746 42.6331 35.4496 39.6548 35.4107 35.9547C35.3719 32.3859 32.3544 29.3944 28.8189 29.4207Z" fill="#E9B500"/>
<path d="M37.7681 38.7758C38.066 36.8864 37.8588 37.162 39.4776 37.1357C39.9567 37.1226 40.4359 37.1357 41.0057 37.1357C41.0057 36.3747 41.0057 35.7056 41.0057 34.9446C40.4877 34.9183 39.9697 34.8003 39.4776 34.8659C38.2343 35.0364 37.6904 34.5247 37.7552 33.1995C39.2186 33.1995 40.7208 33.1602 42.2231 33.2389C42.4173 33.252 42.7411 33.79 42.7541 34.1049C42.8059 35.3644 42.7929 36.6371 42.6893 37.8836C42.6634 38.1985 42.1972 38.7102 41.8993 38.7364C40.5654 38.8283 39.2186 38.7758 37.7681 38.7758Z" fill="#E9B500"/>
<path d="M22.2402 45.5197C23.5741 43.7484 23.5741 43.7484 25.5167 44.8768C24.2864 45.2704 23.3151 45.5722 22.3438 45.874C22.305 45.7559 22.2791 45.6378 22.2402 45.5197Z" fill="#E9B500"/>
<path d="M34.2584 34.8788C31.4222 34.8788 28.7673 34.8788 26.0477 34.8788C26.0477 35.6398 26.0477 36.2958 26.0477 37.083C28.7414 37.083 31.4222 37.083 34.103 37.083C34.103 38.5263 33.8828 38.7887 32.7043 38.7887C30.3473 38.7887 27.9774 38.7625 25.6204 38.8018C24.6879 38.815 24.2865 38.4738 24.3253 37.5029C24.3771 36.3876 24.3383 35.2593 24.3383 34.1309C24.3383 33.488 24.6491 33.16 25.2966 33.16C27.7961 33.1468 30.2826 33.1206 32.782 33.0944C33.8828 33.0681 33.9864 33.8947 34.2584 34.8788Z" fill="#E9B500"/>
</svg>
