<svg width="43" height="42" viewBox="0 0 43 42" fill="none" xmlns="http://www.w3.org/2000/svg">
<rect x="0.5" width="42" height="42" rx="21" fill="#FFEBF1"/>
<g clip-path="url(#clip0_256_13872)">
<path d="M16.0932 21.0806C15.5071 21.0806 14.9503 21.0806 14.3862 21.0806C14.3862 21.652 14.3862 22.2088 14.3862 22.7802C14.9796 22.7802 15.5364 22.7802 16.0932 22.7802C16.0932 22.2014 16.0932 21.6373 16.0932 21.0806Z" fill="black"/>
<path d="M11.3823 26.7217C13.9831 26.7217 16.5398 26.7217 19.1186 26.7217C19.1186 26.5972 19.1186 26.4946 19.1186 26.3847C19.1186 25.1906 19.1259 24.0038 19.1113 22.8096C19.06 18.0917 15.7853 17.6814 15.5435 17.6521C15.2724 17.6302 15.0014 17.6375 14.723 17.6814C12.6937 18.0111 11.3823 19.5716 11.3823 21.6375C11.3823 23.2272 11.3823 24.817 11.3823 26.414C11.3823 26.5166 11.3823 26.6192 11.3823 26.7217ZM14.386 21.0807C14.9574 21.0807 15.5142 21.0807 16.0929 21.0807C16.0929 21.6375 16.0929 22.1943 16.0929 22.7803C15.5362 22.7803 14.9721 22.7803 14.386 22.7803C14.386 22.2089 14.386 21.6595 14.386 21.0807Z" fill="black"/>
<path d="M10.1001 32.4433C13.5726 32.4433 17.0305 32.4433 20.503 32.4433C20.503 31.1247 20.503 29.8206 20.503 28.5093C17.0305 28.5093 13.58 28.5093 10.1001 28.5093C10.1001 29.828 10.1001 31.1247 10.1001 32.4433Z" fill="black"/>
<path d="M28.8249 12.5053C28.8682 12.4949 28.888 12.4938 28.8997 12.4891C30.0132 11.4051 31.1244 10.3152 32.2356 9.22533C32.2287 9.20778 32.224 9.19608 32.2171 9.17853C32.1565 9.12809 32.0877 9.07412 32.0307 9.01552C31.1539 8.11767 30.2771 7.21982 29.4062 6.31965C29.3305 6.24813 29.2466 6.17308 29.1115 6.0371C29.0618 6.2192 29.003 6.34402 28.9979 6.46785C28.9456 8.14658 28.9015 9.82884 28.8492 11.5076C28.8376 11.837 28.8319 12.1641 28.8249 12.5053Z" fill="#F1416C"/>
<path d="M18.3297 23.0651C18.2695 22.913 18.264 22.8137 18.401 22.6985C18.5897 22.5426 18.7445 22.3527 18.925 22.1932C19.0562 22.0803 19.0987 21.9484 19.1051 21.7767C19.1268 20.8748 19.1543 19.9706 19.1818 19.0664C19.2147 17.9706 19.2417 16.8771 19.277 15.7194C19.1727 15.8149 19.1083 15.8742 19.0497 15.9313C17.7357 17.2098 16.4241 18.4941 15.1055 19.7609C15.0071 19.8541 14.8515 19.9225 14.7183 19.9279C14.4203 19.9444 14.1339 19.9902 13.8555 20.0734C14.0461 20.025 16.7964 19.3144 18.3297 23.0651Z" fill="black"/>
<path d="M24.7515 16.5216C25.5438 15.7543 26.2917 15.0113 27.0605 14.2872C27.2117 14.1393 27.2753 13.9923 27.2818 13.7867C27.3038 12.7832 27.3375 11.775 27.3677 10.775C27.3967 9.78902 27.4198 8.80535 27.4513 7.75746C26.6461 8.54342 25.8865 9.29098 25.1165 10.0292C24.9688 10.1689 24.9111 10.3136 24.9081 10.511C24.855 12.4269 24.8019 14.3428 24.7489 16.2587C24.7369 16.3311 24.7472 16.4082 24.7515 16.5216Z" fill="black"/>
<path d="M20.6718 20.486C20.7609 20.4033 20.8195 20.3463 20.8781 20.2892C21.5872 19.6023 22.294 18.9094 23.0054 18.2283C23.1285 18.1119 23.1815 17.9894 23.1856 17.8118C23.234 15.8842 23.2906 13.9602 23.3472 12.0361C23.3487 11.9543 23.3442 11.8748 23.3469 11.779C23.3024 11.8034 23.279 11.8127 23.2638 11.8255C22.4808 12.5823 21.6979 13.3392 20.9254 14.1054C20.8574 14.1729 20.8243 14.2943 20.824 14.396C20.7614 16.3562 20.7105 18.3119 20.6538 20.2698C20.6513 20.3317 20.6627 20.3948 20.6718 20.486Z" fill="#F1416C"/>
</g>
<defs>
<clipPath id="clip0_256_13872">
<rect width="30" height="30" fill="white" transform="translate(6.5 6)"/>
</clipPath>
</defs>
</svg>
