<svg width="49" height="50" viewBox="0 0 49 50" fill="none" xmlns="http://www.w3.org/2000/svg">
<rect y="0.5" width="49" height="49" rx="6" fill="#EEF6FF"/>
<path d="M14.7436 27.5082C11.7382 26.3235 10.1148 23.9872 10.2026 21.0915C10.2903 18.4041 12.1112 16.0459 14.7765 15.2232C16.3451 14.7406 17.8807 14.8503 19.3724 15.5194C20.8422 16.1775 21.9062 17.2853 22.7179 18.9087C24.5935 16.9672 26.4472 15.1355 28.1912 13.216C29.1565 12.152 30.9115 12.0752 31.789 13.2269C32.118 13.6547 32.5677 13.9947 32.9516 14.3896C33.3575 14.8064 33.3465 15.0916 32.9516 15.5194C32.842 15.64 32.7213 15.7497 32.6116 15.8813C31.9864 16.6382 32.0083 17.6473 32.6445 18.3274C33.3136 19.0294 34.3337 19.1281 35.1234 18.5467C35.288 18.4261 35.4196 18.2835 35.5622 18.1409C35.99 17.7351 36.33 17.7241 36.7468 18.1299C37.2075 18.5796 37.6572 19.0294 38.1069 19.4791C39.0064 20.3785 39.0064 21.7057 38.096 22.6051C35.2441 25.4241 32.4032 28.2321 29.5514 31.0401C27.7525 32.806 25.9536 34.583 24.1657 36.3489C23.1676 37.3251 21.9062 37.3361 20.908 36.3708C20.5022 35.976 20.0964 35.5811 19.6905 35.1862C19.1311 34.6268 19.1421 34.3855 19.6686 33.8151C19.9318 33.53 20.1841 33.179 20.3048 32.817C20.557 32.0602 20.217 31.2814 19.526 30.8317C18.835 30.3819 18.0233 30.4258 17.3322 30.9633C16.2902 31.775 16.2902 31.775 15.2811 30.9194C14.7765 30.4916 14.272 30.0748 13.7784 29.6361C13.3177 29.2302 13.3177 28.9121 13.7455 28.4844C14.0526 28.1553 14.3707 27.8701 14.7436 27.5082ZM20.8642 34.5281C21.1274 34.7694 21.4126 35.0327 21.6868 35.2959C22.312 35.9102 22.7398 35.9211 23.354 35.3069C26.1511 32.5537 28.9481 29.8006 31.7451 27.0365C31.8657 26.9158 31.9864 26.7732 32.129 26.6197C29.5623 23.9872 27.0395 21.3876 24.3961 18.6674C23.9683 19.139 23.5734 19.5668 23.2005 20.0165C23.1127 20.1153 23.1018 20.3237 23.1127 20.4663C23.6612 24.7221 20.1622 27.8372 16.6961 27.7604C16.5425 27.7604 16.3451 27.7714 16.2354 27.8591C15.8295 28.2101 15.4456 28.594 15.0288 28.9889C15.5005 29.3838 15.9063 29.7238 16.3012 30.0529C18.2317 28.956 19.6137 28.9999 20.7764 30.1626C21.8952 31.2814 21.9281 32.6305 20.8642 34.5281ZM21.8623 21.3876C21.8733 18.5358 19.5918 16.2433 16.729 16.2323C13.8442 16.2323 11.5298 18.4809 11.5079 21.3218C11.4859 24.1627 13.7674 26.4442 16.6522 26.4552C19.5479 26.4771 21.8513 24.2395 21.8623 21.3876ZM25.5149 17.9435C27.9828 20.4772 30.5276 23.0878 33.193 25.808C34.564 24.3821 35.9022 23.011 37.2185 21.618C37.5366 21.2779 37.5695 20.8502 37.2623 20.4772C36.9333 20.0714 36.5603 19.7094 36.2203 19.3365C34.6079 20.4004 33.1162 20.4663 32.0193 19.4791C31.5806 19.0842 31.2076 18.5248 31.0102 17.9654C30.6263 16.8795 30.9992 15.8594 31.6683 14.9709C31.2844 14.587 30.9553 14.247 30.6153 13.918C30.2314 13.545 29.7598 13.556 29.4307 13.885C28.1145 15.2123 26.8421 16.5724 25.5149 17.9435Z" fill="#2884EF"/>
<path d="M17.0252 20.0714C17.0252 20.5869 17.0361 21.0915 17.0252 21.607C17.0142 22.0348 16.8058 22.3309 16.378 22.3419C15.9393 22.3529 15.7199 22.0677 15.7089 21.6399C15.6979 20.6198 15.6979 19.5997 15.7089 18.5687C15.7089 18.1409 15.8954 17.8447 16.3561 17.8447C16.8387 17.8447 17.0252 18.1518 17.0252 18.6016C17.0361 19.0842 17.0252 19.5778 17.0252 20.0714Z" fill="#2884EF"/>
<path d="M15.709 24.064C15.709 23.5594 15.9832 23.2304 16.389 23.2414C16.7839 23.2633 17.0362 23.6033 17.0252 24.0969C17.0143 24.5357 16.8497 24.8428 16.3671 24.8647C15.9503 24.8976 15.709 24.5905 15.709 24.064Z" fill="#2884EF"/>
</svg>
