<svg width="37" height="36" viewBox="0 0 37 36" fill="none" xmlns="http://www.w3.org/2000/svg">
<g clip-path="url(#clip0_256_13845)">
<path d="M27.4999 28.2858H32.6428C33.3247 28.2858 33.9789 28.0148 34.461 27.5326C34.9432 27.0505 35.2142 26.3963 35.2142 25.7144V14.143C35.2142 13.461 34.9432 12.8069 34.461 12.3247C33.9789 11.8425 33.3247 11.5715 32.6428 11.5715H4.35707C3.67508 11.5715 3.02104 11.8425 2.5388 12.3247C2.05656 12.8069 1.78564 13.461 1.78564 14.143V25.7144C1.78564 26.3963 2.05656 27.0505 2.5388 27.5326C3.02104 28.0148 3.67508 28.2858 4.35707 28.2858H9.49993" stroke="#3E97FF" stroke-width="2" stroke-linecap="round" stroke-linejoin="round"/>
<path d="M9.5 24.4286V33.4286C9.5 33.7696 9.63546 34.0966 9.87659 34.3378C10.1177 34.5788 10.4447 34.7143 10.7857 34.7143H26.2143C26.5553 34.7143 26.8823 34.5788 27.1235 34.3378C27.3645 34.0966 27.5 33.7696 27.5 33.4286V24.4286H9.5Z" stroke="#3E97FF" stroke-width="2" stroke-linecap="round" stroke-linejoin="round"/>
<path d="M27.5 11.5715V2.57148C27.5 2.23049 27.3645 1.90346 27.1235 1.66234C26.8823 1.42122 26.5553 1.28577 26.2143 1.28577H10.7857C10.4447 1.28577 10.1177 1.42122 9.87659 1.66234C9.63546 1.90346 9.5 2.23049 9.5 2.57148V11.5715" stroke="#3E97FF" stroke-width="2" stroke-linecap="round" stroke-linejoin="round"/>
<path d="M28.7858 18H26.2144" stroke="#3E97FF" stroke-width="2" stroke-linecap="round" stroke-linejoin="round"/>
</g>
<defs>
<clipPath id="clip0_256_13845">
<rect width="36" height="36" fill="white" transform="translate(0.5)"/>
</clipPath>
</defs>
</svg>
