<svg width="37" height="36" viewBox="0 0 37 36" fill="none" xmlns="http://www.w3.org/2000/svg">
<g clip-path="url(#clip0_256_13857)">
<path d="M36.5 9.62374C36.3978 10.1145 36.3247 10.6125 36.186 11.0959C35.171 14.7142 31.8923 17.1825 28.1462 17.1679C28.044 17.1679 27.9345 17.1679 27.7738 17.1679C27.7738 17.3144 27.7738 17.4462 27.7738 17.578C27.7738 21.7969 27.7811 26.0157 27.7738 30.2346C27.7738 32.5418 26.2696 34.3949 24.0351 34.827C23.5604 34.9222 23.0566 34.9149 22.5673 34.9149C16.7767 34.9222 10.9933 34.9222 5.20264 34.9149C2.53002 34.9149 0.507302 32.886 0.5 30.2126C0.5 29.4362 0.5 28.6599 0.5 27.8835C0.5 27.3561 0.689858 27.1657 1.22292 27.1657C2.40588 27.1584 3.58884 27.1657 4.77181 27.1657C4.90325 27.1657 5.02738 27.1657 5.19533 27.1657C5.20264 27.0265 5.21724 26.902 5.21724 26.7775C5.26105 20.1709 5.30487 13.5716 5.35598 6.96498C5.36329 6.18127 5.51663 6.02746 6.31258 6.02746C10.8911 6.02746 15.4769 6.02746 20.0554 6.03478C20.3329 6.03478 20.4497 5.96154 20.5665 5.69786C21.8809 2.51174 25.0574 0.438939 28.4529 0.541481C32.5276 0.658671 35.9669 3.80084 36.4343 7.84391C36.4416 7.92448 36.4781 7.99772 36.5 8.07829C36.5 8.58367 36.5 9.10371 36.5 9.62374ZM6.3929 27.1657C6.59736 27.1657 6.73611 27.1657 6.87485 27.1657C10.2631 27.1657 13.644 27.1657 17.0323 27.1657C17.7333 27.1657 18.4416 27.1584 19.1426 27.1657C19.5515 27.173 19.7414 27.3634 19.756 27.7736C19.7633 28.1398 19.756 28.4987 19.7633 28.8649C19.7706 29.5095 19.7195 30.1687 19.8071 30.7986C20.0627 32.6077 21.6473 33.8529 23.4728 33.7283C25.2181 33.6111 26.5982 32.1316 26.5982 30.3078C26.6128 25.9718 26.5982 21.6358 26.6055 17.2997C26.6055 17.0727 26.5398 16.9848 26.3061 16.9335C24.2688 16.4208 22.6404 15.3148 21.4428 13.5789C21.3187 13.4031 21.1945 13.3445 20.9828 13.3445C19.1207 13.3519 17.2586 13.3519 15.3966 13.3445C15.2578 13.3445 15.1118 13.3445 14.9803 13.3079C14.7174 13.2347 14.5641 13.0442 14.5641 12.7659C14.5568 12.4656 14.7174 12.2752 14.9949 12.1946C15.1191 12.158 15.2505 12.1653 15.3746 12.1653C16.9884 12.1653 18.6095 12.1653 20.2233 12.1653C20.3475 12.1653 20.4716 12.1653 20.6396 12.1653C19.9385 10.5393 19.7998 8.90595 20.0846 7.22866C15.5499 7.22866 11.0517 7.22866 6.52434 7.22866C6.48053 13.8719 6.43671 20.5005 6.3929 27.1657ZM28.2193 15.9886C32.1479 15.9886 35.317 12.8099 35.3316 8.862C35.3462 4.9288 32.1625 1.72071 28.2412 1.72071C24.298 1.71339 21.1069 4.91415 21.1069 8.862C21.1069 12.8025 24.2907 15.9886 28.2193 15.9886ZM1.67566 28.3449C1.67566 29.0407 1.65375 29.7219 1.68296 30.4031C1.75598 32.3074 3.21643 33.7357 5.11501 33.743C10.0075 33.7503 14.9073 33.743 19.7998 33.743C19.8801 33.743 19.9604 33.7283 19.9531 33.7283C19.6099 33.1644 19.1791 32.637 18.9454 32.0291C18.7191 31.4578 18.6533 30.8059 18.5949 30.1833C18.5365 29.5827 18.5803 28.9748 18.5803 28.3596C12.9211 28.3449 7.32028 28.3449 1.67566 28.3449Z" fill="#5E6278"/>
<path d="M18.9891 23.584C17.7331 23.584 16.4845 23.584 15.2285 23.584C14.8342 23.584 14.5859 23.3862 14.5567 23.0566C14.5202 22.6831 14.7757 22.4194 15.2139 22.4121C15.9295 22.4047 16.6451 22.4121 17.3607 22.4121C19.106 22.4121 20.8512 22.4121 22.5964 22.4121C22.6987 22.4121 22.8082 22.4047 22.9104 22.4194C23.2609 22.456 23.4873 22.6977 23.48 23.0127C23.4727 23.3276 23.2317 23.5766 22.8812 23.584C22.2021 23.5986 21.523 23.5913 20.8439 23.5913C20.2305 23.584 19.6098 23.584 18.9891 23.584Z" fill="#5E6278"/>
<path d="M19.0256 17.2997C20.3035 17.2997 21.5814 17.2997 22.8593 17.2997C23.239 17.2997 23.48 17.5341 23.4873 17.8637C23.4946 18.2006 23.2536 18.4277 22.8812 18.457C22.779 18.4643 22.6695 18.457 22.5672 18.457C20.8074 18.457 19.0549 18.457 17.295 18.457C16.5794 18.457 15.8638 18.4716 15.1482 18.4496C14.6516 18.435 14.3668 17.9223 14.6662 17.5634C14.783 17.4169 15.0386 17.3144 15.2358 17.307C16.4991 17.2851 17.7624 17.2997 19.0256 17.2997Z" fill="#5E6278"/>
<path d="M13.2496 12.7879C13.2496 13.784 12.4244 14.597 11.4021 14.6117C10.3798 14.619 9.51081 13.7767 9.51811 12.7806C9.52541 11.7918 10.3725 10.9788 11.3875 10.9788C12.4171 10.9788 13.2496 11.7918 13.2496 12.7879ZM11.4021 13.4324C11.7818 13.4251 12.0958 13.1248 12.0885 12.7806C12.0812 12.429 11.7599 12.1507 11.3729 12.158C10.9859 12.1653 10.6865 12.4583 10.6938 12.8099C10.7011 13.1614 11.0151 13.4398 11.4021 13.4324Z" fill="#5E6278"/>
<path d="M13.2495 17.8929C13.2422 18.8891 12.4024 19.6947 11.3801 19.6947C10.3651 19.6874 9.51807 18.8671 9.51807 17.8783C9.51807 16.8822 10.387 16.0472 11.4093 16.0618C12.4463 16.0838 13.2568 16.8968 13.2495 17.8929ZM11.3655 18.5155C11.7525 18.5228 12.0738 18.2518 12.0885 17.9003C12.1031 17.556 11.7891 17.2484 11.4093 17.2411C11.0296 17.2337 10.7083 17.5047 10.6937 17.8563C10.6864 18.2152 10.9785 18.5009 11.3655 18.5155Z" fill="#5E6278"/>
<path d="M13.2496 22.976C13.2423 23.9722 12.4098 24.7778 11.3875 24.7778C10.3725 24.7778 9.52544 23.9575 9.52544 22.9687C9.51813 21.9653 10.3798 21.1449 11.4167 21.1523C12.4463 21.1669 13.2569 21.9726 13.2496 22.976ZM11.3802 23.5986C11.7672 23.5986 12.0812 23.3276 12.0885 22.976C12.0958 22.6318 11.7745 22.3315 11.3948 22.3242C11.0151 22.3169 10.6938 22.6025 10.6938 22.9541C10.6865 23.3056 10.9932 23.5913 11.3802 23.5986Z" fill="#5E6278"/>
<path d="M28.7011 13.1907C28.7011 13.4104 28.7157 13.6155 28.7011 13.8133C28.6792 14.1502 28.4528 14.3626 28.1316 14.3626C27.8103 14.3626 27.5328 14.1429 27.5693 13.8206C27.6277 13.3152 27.4086 13.1101 26.9778 12.8904C26.1819 12.4876 25.7656 11.7698 25.7218 10.8689C25.6999 10.4514 25.9044 10.2023 26.2549 10.1804C26.6127 10.1584 26.8245 10.3708 26.8756 10.7883C26.9632 11.5207 27.4086 11.9895 28.0731 12.0481C28.6792 12.0994 29.2342 11.7258 29.424 11.1399C29.665 10.3855 29.1831 9.59442 28.409 9.4699C28.1242 9.42596 27.8249 9.41863 27.5401 9.34539C26.5543 9.08903 25.8167 8.21743 25.7364 7.23596C25.6415 6.12998 26.1819 5.13386 27.1677 4.72369C27.489 4.59185 27.5839 4.43072 27.562 4.10844C27.5401 3.6763 27.7372 3.4346 28.0804 3.4053C28.4236 3.376 28.7303 3.61038 28.6938 3.96195C28.65 4.40874 28.8399 4.56255 29.2269 4.73102C30.1032 5.11188 30.5559 5.84432 30.6508 6.7965C30.6946 7.21399 30.4756 7.49964 30.1251 7.53626C29.7746 7.57288 29.5263 7.32385 29.4825 6.89904C29.3948 6.108 28.8545 5.62459 28.1023 5.66121C27.4305 5.69051 26.8756 6.28379 26.8829 6.96496C26.8902 7.67543 27.4451 8.22475 28.19 8.2687C29.5263 8.34195 30.4537 9.16228 30.6435 10.444C30.8115 11.594 30.0885 12.6926 28.8764 13.1175C28.8253 13.1468 28.7815 13.1614 28.7011 13.1907Z" fill="#5E6278"/>
</g>
<defs>
<clipPath id="clip0_256_13857">
<rect width="36" height="36" fill="white" transform="translate(0.5)"/>
</clipPath>
</defs>
</svg>
