<svg width="66" height="66" viewBox="0 0 66 66" fill="none" xmlns="http://www.w3.org/2000/svg">
<rect x="0.236816" y="0.105225" width="65.5789" height="65.5789" rx="32.7895" fill="#EEF6FF"/>
<path d="M51.7536 28.8777C51.7146 28.9752 51.6756 29.0728 51.6464 29.1801C51.3051 30.2626 50.3594 30.9843 49.2186 30.9941C48.0096 31.0038 46.8103 30.9941 45.5721 30.9941C45.5721 37.1285 45.5721 43.2532 45.5721 49.4266C46.1668 49.4266 46.7713 49.4169 47.3758 49.4266C48.1753 49.4461 48.6921 50.2361 48.3801 50.9481C48.1948 51.3577 47.8633 51.6112 47.4148 51.6112C45.4453 51.621 43.466 51.621 41.4965 51.6112C40.9017 51.6112 40.4435 51.1041 40.4337 50.5189C40.4337 49.924 40.9017 49.4364 41.5257 49.4266C42.1205 49.4169 42.7153 49.4266 43.3295 49.4266C43.3295 43.2824 43.3295 37.1578 43.3295 30.9941C43.193 30.9941 43.0663 30.9941 42.9298 30.9941C41.8475 30.9941 40.7652 31.0038 39.6732 30.9941C38.2594 30.9745 37.1382 29.8627 37.1382 28.4584C37.1284 24.5475 37.1284 20.6367 37.1382 16.7259C37.1382 15.5751 37.8889 14.6095 38.9907 14.2779C39.0785 14.2487 39.1662 14.2097 39.254 14.1804C42.7153 14.1804 46.1766 14.1804 49.6379 14.1804C50.3691 14.4047 51.0126 14.7461 51.3929 15.4385C51.5391 15.7116 51.6366 16.0139 51.7634 16.2968C51.7536 20.4904 51.7536 24.6841 51.7536 28.8777ZM39.3222 22.558C39.3222 24.4598 39.3222 26.3615 39.3222 28.2633C39.3222 28.6924 39.4295 28.7997 39.8585 28.7997C42.9005 28.7997 45.9523 28.7997 48.9944 28.7997C49.4526 28.7997 49.5501 28.7022 49.5501 28.2438C49.5501 24.4793 49.5501 20.7147 49.5501 16.9404C49.5501 16.4625 49.4526 16.365 48.9749 16.365C45.9523 16.365 42.9298 16.365 39.9072 16.365C39.4002 16.365 39.3125 16.4528 39.3125 16.9599C39.3222 18.8227 39.3222 20.6952 39.3222 22.558Z" fill="#2884EF"/>
<path d="M22.386 47.2615C22.3568 47.8369 22.3763 48.3928 22.2885 48.9194C22.0155 50.5774 20.4945 51.7379 18.8175 51.6112C17.1697 51.4844 15.8339 50.1092 15.7852 48.4513C15.7754 48.0514 15.7852 47.6516 15.7852 47.2224C15.6194 47.2224 15.5024 47.2322 15.3854 47.2224C14.7809 47.1932 14.3227 46.7348 14.3227 46.1301C14.3129 44.1113 14.2934 42.0828 14.3324 40.064C14.3617 38.406 15.5512 36.9139 17.1892 36.4262C17.4427 36.3482 17.5402 36.2214 17.6085 35.9971C18.018 34.622 18.4275 33.2468 18.8467 31.8717C19.4122 30.0187 20.8845 28.9362 22.8248 28.9362C25.6913 28.9362 28.5481 28.9362 31.4147 28.9362C33.355 28.9362 34.8272 30.0187 35.3927 31.8717C35.812 33.2468 36.2215 34.622 36.631 35.9971C36.6993 36.2214 36.7968 36.3482 37.0503 36.4262C38.7273 36.9139 39.8973 38.4548 39.9168 40.2103C39.9363 42.1608 39.9266 44.1113 39.9168 46.0619C39.9168 46.7543 39.4683 47.2029 38.776 47.2224C38.6785 47.2224 38.5908 47.2224 38.4835 47.2224C38.4543 47.7979 38.4738 48.344 38.386 48.8804C38.113 50.5676 36.592 51.7282 34.9052 51.6014C33.2282 51.4746 31.9119 50.0702 31.8729 48.3635C31.8632 48.0027 31.8729 47.6321 31.8729 47.242C28.6944 47.2615 25.5451 47.2615 22.386 47.2615ZM16.5262 45.0183C23.6048 45.0183 30.6444 45.0183 37.684 45.0183C37.684 44.2869 37.684 43.5749 37.684 42.863C37.6353 42.8532 37.606 42.8435 37.5865 42.8435C37.06 42.8435 36.5433 42.8435 36.0167 42.8435C35.2855 42.8435 34.7785 42.3851 34.7882 41.7317C34.798 41.0978 35.2952 40.6491 36.007 40.6491C36.5628 40.6491 37.1185 40.6491 37.6743 40.6491C37.8498 39.43 37.0405 38.4548 35.851 38.4548C30.0302 38.445 24.2093 38.4548 18.3885 38.4548C17.1892 38.4548 16.3897 39.4008 16.5457 40.6101C16.5652 40.6199 16.5847 40.6394 16.6042 40.6394C17.1405 40.6394 17.6767 40.6491 18.213 40.6491C18.9345 40.6491 19.422 41.088 19.4317 41.7219C19.4415 42.3754 18.9442 42.8337 18.213 42.8337C17.6572 42.8337 17.1015 42.8337 16.5262 42.8337C16.5262 43.5847 16.5262 44.2869 16.5262 45.0183ZM34.3592 36.2507C34.3592 36.2019 34.369 36.1629 34.3592 36.1336C33.979 34.8658 33.6182 33.5882 33.2087 32.3301C32.9747 31.5889 32.2922 31.15 31.4927 31.15C28.5676 31.15 25.6426 31.1403 22.7175 31.15C21.8595 31.15 21.216 31.6377 20.943 32.4666C20.787 32.9543 20.6505 33.4419 20.5043 33.9295C20.2703 34.7 20.046 35.4607 19.8022 36.2507C24.6871 36.2507 29.5231 36.2507 34.3592 36.2507ZM17.9692 47.2517C17.9692 47.6418 17.9595 48.0027 17.9692 48.3538C17.9887 48.9292 18.4177 49.3778 18.9637 49.4266C19.4902 49.4753 20.0265 49.1242 20.1143 48.5781C20.1825 48.149 20.124 47.6906 20.124 47.2517C19.4025 47.2517 18.7005 47.2517 17.9692 47.2517ZM34.057 47.2517C34.057 47.6516 34.0472 48.0222 34.057 48.383C34.0862 48.9487 34.5347 49.3973 35.0807 49.4266C35.617 49.4558 36.1337 49.095 36.2118 48.5488C36.2703 48.1294 36.2215 47.6906 36.2215 47.2517C35.5 47.2517 34.798 47.2517 34.057 47.2517Z" fill="#2884EF"/>
<path d="M43.5245 23.738C43.5245 23.9233 43.5245 24.0696 43.5245 24.2159C43.5245 24.7231 43.5342 25.24 43.5245 25.7471C43.5147 26.2835 43.2222 26.6053 42.7835 26.6053C42.3545 26.5956 42.0815 26.2835 42.062 25.7666C42.0522 25.5618 42.062 25.357 42.062 25.1424C42.062 23.2699 42.062 21.3876 42.062 19.5151C42.062 18.7934 42.3057 18.5594 43.0272 18.5594C43.6707 18.5594 44.324 18.5106 44.9577 18.5886C46.3423 18.7544 47.2978 19.9247 47.2295 21.2706C47.1613 22.636 46.0888 23.6795 44.6847 23.738C44.3142 23.7575 43.9437 23.738 43.5245 23.738ZM43.5537 22.2751C43.9632 22.2751 44.3337 22.2946 44.6945 22.2751C45.299 22.2361 45.7573 21.7582 45.7865 21.2023C45.806 20.6464 45.3965 20.1198 44.831 20.0515C44.4117 20.0028 43.9925 20.0418 43.5635 20.0418C43.5537 20.7927 43.5537 21.5144 43.5537 22.2751Z" fill="#2884EF"/>
<path d="M27.0664 42.8435C26.1402 42.8435 25.2139 42.8435 24.2974 42.8435C23.5856 42.8435 23.0981 42.3949 23.0884 41.7512C23.0884 41.1173 23.5759 40.6492 24.2876 40.6492C26.1694 40.6492 28.061 40.6492 29.9427 40.6492C30.6447 40.6492 31.142 41.1173 31.1323 41.761C31.1225 42.3851 30.635 42.8435 29.9525 42.8435C28.9872 42.8435 28.0317 42.8435 27.0664 42.8435Z" fill="#2884EF"/>
</svg>
