<svg width="114" height="38" viewBox="0 0 114 38" fill="none" xmlns="http://www.w3.org/2000/svg">
<rect width="114" height="38" rx="6" fill="white"/>
<path d="M23.5952 19.405L21.3452 21.655C21.2372 21.7613 21.0917 21.8208 20.9402 21.8208C20.7887 21.8208 20.6432 21.7613 20.5352 21.655C20.4817 21.602 20.4392 21.5389 20.4102 21.4694C20.3812 21.3999 20.3663 21.3253 20.3663 21.25C20.3663 21.1747 20.3812 21.1001 20.4102 21.0306C20.4392 20.9611 20.4817 20.898 20.5352 20.845L21.7877 19.5925H14.2502C14.1753 19.5925 14.1012 19.5778 14.032 19.5491C13.9629 19.5205 13.9001 19.4785 13.8471 19.4256C13.7942 19.3726 13.7522 19.3098 13.7236 19.2406C13.6949 19.1715 13.6802 19.0974 13.6802 19.0225C13.6802 18.9477 13.6949 18.8735 13.7236 18.8044C13.7522 18.7352 13.7942 18.6724 13.8471 18.6195C13.9001 18.5665 13.9629 18.5245 14.032 18.4959C14.1012 18.4673 14.1753 18.4525 14.2502 18.4525H21.8102L20.5577 17.1775C20.4503 17.0701 20.3899 16.9244 20.3899 16.7725C20.3899 16.6206 20.4503 16.4749 20.5577 16.3675C20.6651 16.2601 20.8108 16.1998 20.9627 16.1998C21.1146 16.1998 21.2603 16.2601 21.3677 16.3675L23.6177 18.6175C23.716 18.7264 23.7686 18.8691 23.7644 19.0158C23.7602 19.1625 23.6996 19.3019 23.5952 19.405ZM28.3052 23.5825V14.4175C28.2738 13.4652 27.8663 12.5642 27.1718 11.9119C26.4773 11.2596 25.5525 10.9092 24.6002 10.9375H21.2702C20.3171 10.9092 19.3915 11.2593 18.6958 11.9114C18.0002 12.5636 17.591 13.4646 17.5577 14.4175C17.5596 14.5701 17.6211 14.7158 17.729 14.8237C17.8369 14.9316 17.9826 14.9931 18.1352 14.995C18.287 14.993 18.432 14.9313 18.5387 14.8232C18.6454 14.7151 18.7052 14.5694 18.7052 14.4175C18.7363 13.7675 19.0237 13.1563 19.5044 12.7178C19.9852 12.2792 20.6201 12.049 21.2702 12.0775H24.6002C25.2503 12.049 25.8852 12.2792 26.3659 12.7178C26.8467 13.1563 27.1341 13.7675 27.1652 14.4175V23.5825C27.1341 24.2325 26.8467 24.8437 26.3659 25.2822C25.8852 25.7208 25.2503 25.951 24.6002 25.9225H21.2702C20.6201 25.951 19.9852 25.7208 19.5044 25.2822C19.0237 24.8437 18.7363 24.2325 18.7052 23.5825C18.7052 23.4306 18.6454 23.2849 18.5387 23.1768C18.432 23.0687 18.287 23.007 18.1352 23.005C17.9826 23.007 17.8369 23.0684 17.729 23.1763C17.6211 23.2842 17.5596 23.4299 17.5577 23.5825C17.591 24.5355 18.0002 25.4365 18.6958 26.0886C19.3915 26.7407 20.3171 27.0908 21.2702 27.0625H24.6002C25.5525 27.0908 26.4773 26.7404 27.1718 26.0881C27.8663 25.4358 28.2738 24.5348 28.3052 23.5825Z" fill="#F1416C"/>
<path d="M46.331 17.2173H44.7372C44.6918 16.956 44.608 16.7244 44.4858 16.5227C44.3636 16.3182 44.2116 16.1449 44.0298 16.0028C43.848 15.8608 43.6406 15.7543 43.4077 15.6832C43.1776 15.6094 42.929 15.5724 42.6619 15.5724C42.1875 15.5724 41.767 15.6918 41.4006 15.9304C41.0341 16.1662 40.7472 16.5128 40.5398 16.9702C40.3324 17.4247 40.2287 17.9801 40.2287 18.6364C40.2287 19.304 40.3324 19.8665 40.5398 20.3239C40.75 20.7784 41.0369 21.1222 41.4006 21.3551C41.767 21.5852 42.1861 21.7003 42.6577 21.7003C42.919 21.7003 43.1634 21.6662 43.3906 21.598C43.6207 21.527 43.8267 21.4233 44.0085 21.2869C44.1932 21.1506 44.348 20.983 44.473 20.7841C44.6009 20.5852 44.6889 20.358 44.7372 20.1023L46.331 20.1108C46.2713 20.5256 46.142 20.9148 45.9432 21.2784C45.7472 21.642 45.4901 21.9631 45.1719 22.2415C44.8537 22.517 44.4815 22.733 44.0554 22.8892C43.6293 23.0426 43.1563 23.1193 42.6364 23.1193C41.8693 23.1193 41.1847 22.9418 40.5824 22.5866C39.9801 22.2315 39.5057 21.7188 39.1591 21.0483C38.8125 20.3778 38.6392 19.5739 38.6392 18.6364C38.6392 17.696 38.8139 16.892 39.1634 16.2244C39.5128 15.554 39.9886 15.0412 40.5909 14.6861C41.1932 14.331 41.875 14.1534 42.6364 14.1534C43.1222 14.1534 43.5739 14.2216 43.9915 14.358C44.4091 14.4943 44.7813 14.6946 45.108 14.9588C45.4347 15.2202 45.7031 15.5412 45.9134 15.9219C46.1264 16.2997 46.2656 16.7315 46.331 17.2173ZM49.2532 14.2727V23H47.7106V14.2727H49.2532ZM53.6946 23.1278C53.0554 23.1278 52.5014 22.9872 52.0327 22.706C51.5639 22.4247 51.2003 22.0312 50.9418 21.5256C50.6861 21.0199 50.5582 20.429 50.5582 19.7528C50.5582 19.0767 50.6861 18.4844 50.9418 17.9759C51.2003 17.4673 51.5639 17.0724 52.0327 16.7912C52.5014 16.5099 53.0554 16.3693 53.6946 16.3693C54.3338 16.3693 54.8878 16.5099 55.3565 16.7912C55.8253 17.0724 56.1875 17.4673 56.4432 17.9759C56.7017 18.4844 56.831 19.0767 56.831 19.7528C56.831 20.429 56.7017 21.0199 56.4432 21.5256C56.1875 22.0312 55.8253 22.4247 55.3565 22.706C54.8878 22.9872 54.3338 23.1278 53.6946 23.1278ZM53.7031 21.892C54.0497 21.892 54.3395 21.7969 54.5724 21.6065C54.8054 21.4134 54.9787 21.1548 55.0923 20.831C55.2088 20.5071 55.267 20.1463 55.267 19.7486C55.267 19.348 55.2088 18.9858 55.0923 18.6619C54.9787 18.3352 54.8054 18.0753 54.5724 17.8821C54.3395 17.6889 54.0497 17.5923 53.7031 17.5923C53.348 17.5923 53.0526 17.6889 52.8168 17.8821C52.5838 18.0753 52.4091 18.3352 52.2926 18.6619C52.179 18.9858 52.1222 19.348 52.1222 19.7486C52.1222 20.1463 52.179 20.5071 52.2926 20.831C52.4091 21.1548 52.5838 21.4134 52.8168 21.6065C53.0526 21.7969 53.348 21.892 53.7031 21.892ZM63.3136 18.1847L61.9073 18.3381C61.8675 18.196 61.7979 18.0625 61.6985 17.9375C61.6019 17.8125 61.4712 17.7116 61.3065 17.6349C61.1417 17.5582 60.94 17.5199 60.7013 17.5199C60.3803 17.5199 60.1104 17.5895 59.8917 17.7287C59.6758 17.8679 59.5692 18.0483 59.5721 18.2699C59.5692 18.4602 59.6388 18.6151 59.7809 18.7344C59.9258 18.8537 60.1644 18.9517 60.4968 19.0284L61.6133 19.267C62.2326 19.4006 62.6928 19.6122 62.994 19.902C63.2979 20.1918 63.4513 20.571 63.4542 21.0398C63.4513 21.4517 63.3306 21.8153 63.092 22.1307C62.8562 22.4432 62.5281 22.6875 62.1076 22.8636C61.6871 23.0398 61.2042 23.1278 60.6587 23.1278C59.8576 23.1278 59.2127 22.9602 58.7241 22.625C58.2354 22.2869 57.9442 21.8168 57.8505 21.2145L59.3548 21.0696C59.4229 21.3651 59.5678 21.5881 59.7894 21.7386C60.011 21.8892 60.2994 21.9645 60.6545 21.9645C61.021 21.9645 61.315 21.8892 61.5366 21.7386C61.761 21.5881 61.8732 21.402 61.8732 21.1804C61.8732 20.9929 61.8008 20.8381 61.6559 20.7159C61.5138 20.5937 61.2923 20.5 60.9911 20.4347L59.8746 20.2003C59.2468 20.0696 58.7823 19.8494 58.4812 19.5398C58.18 19.2273 58.0309 18.8324 58.0337 18.3551C58.0309 17.9517 58.1403 17.6023 58.3619 17.3068C58.5863 17.0085 58.8974 16.7784 59.2951 16.6165C59.6957 16.4517 60.1573 16.3693 60.68 16.3693C61.4471 16.3693 62.0508 16.5327 62.4911 16.8594C62.9343 17.1861 63.2085 17.6278 63.3136 18.1847ZM67.6239 23.1278C66.9677 23.1278 66.4009 22.9915 65.9237 22.7188C65.4492 22.4432 65.0842 22.054 64.8285 21.5511C64.5728 21.0455 64.445 20.4503 64.445 19.7656C64.445 19.0923 64.5728 18.5014 64.8285 17.9929C65.087 17.4815 65.4478 17.0838 65.9109 16.7997C66.3739 16.5128 66.918 16.3693 67.543 16.3693C67.9464 16.3693 68.3271 16.4347 68.685 16.5653C69.0458 16.6932 69.364 16.892 69.6396 17.1619C69.918 17.4318 70.1367 17.7756 70.2958 18.1932C70.4549 18.608 70.5344 19.1023 70.5344 19.6761V20.1491H65.1694V19.1094H69.0558C69.0529 18.8139 68.989 18.5511 68.864 18.321C68.739 18.0881 68.5643 17.9048 68.3398 17.7713C68.1183 17.6378 67.8597 17.571 67.5643 17.571C67.2489 17.571 66.9719 17.6477 66.7333 17.8011C66.4947 17.9517 66.3086 18.1506 66.1751 18.3977C66.0444 18.642 65.9776 18.9105 65.9748 19.2031V20.1108C65.9748 20.4915 66.0444 20.8182 66.1836 21.0909C66.3228 21.3608 66.5174 21.5682 66.7674 21.7131C67.0174 21.8551 67.31 21.9261 67.6452 21.9261C67.8697 21.9261 68.0728 21.8949 68.2546 21.8324C68.4364 21.767 68.5941 21.6719 68.7276 21.5469C68.8612 21.4219 68.962 21.267 69.0302 21.0824L70.4705 21.2443C70.3796 21.625 70.2063 21.9574 69.9506 22.2415C69.6978 22.5227 69.3739 22.7415 68.979 22.8977C68.5842 23.0511 68.1325 23.1278 67.6239 23.1278ZM79.6271 16.6719C79.5874 16.2997 79.4197 16.0099 79.1243 15.8026C78.8317 15.5952 78.451 15.4915 77.9822 15.4915C77.6527 15.4915 77.37 15.5412 77.1342 15.6406C76.8984 15.7401 76.718 15.875 76.593 16.0455C76.468 16.2159 76.4041 16.4105 76.4013 16.6293C76.4013 16.8111 76.4425 16.9687 76.5249 17.1023C76.6101 17.2358 76.7251 17.3494 76.87 17.4432C77.0149 17.5341 77.1754 17.6108 77.3516 17.6733C77.5277 17.7358 77.7053 17.7884 77.8842 17.831L78.7024 18.0355C79.032 18.1122 79.3487 18.2159 79.6527 18.3466C79.9595 18.4773 80.2337 18.642 80.4751 18.8409C80.7195 19.0398 80.9126 19.2798 81.0547 19.5611C81.1967 19.8423 81.2678 20.1719 81.2678 20.5497C81.2678 21.0611 81.1371 21.5114 80.8757 21.9006C80.6143 22.2869 80.2365 22.5895 79.7422 22.8082C79.2507 23.0241 78.6555 23.1321 77.9567 23.1321C77.2777 23.1321 76.6882 23.027 76.1882 22.8168C75.6911 22.6065 75.3018 22.2997 75.0206 21.8963C74.7422 21.4929 74.5916 21.0014 74.5689 20.4219H76.1243C76.147 20.7259 76.2408 20.9787 76.4055 21.1804C76.5703 21.3821 76.7848 21.5327 77.049 21.6321C77.3161 21.7315 77.6143 21.7812 77.9439 21.7812C78.2876 21.7812 78.5888 21.7301 78.8473 21.6278C79.1087 21.5227 79.3132 21.3778 79.4609 21.1932C79.6087 21.0057 79.6839 20.7869 79.6868 20.5369C79.6839 20.3097 79.6172 20.1222 79.4865 19.9744C79.3558 19.8239 79.1726 19.6989 78.9368 19.5994C78.7038 19.4972 78.4311 19.4062 78.1186 19.3267L77.1257 19.071C76.407 18.8864 75.8388 18.6065 75.4212 18.2315C75.0064 17.8537 74.799 17.3523 74.799 16.7273C74.799 16.2131 74.9382 15.7628 75.2166 15.3764C75.4979 14.9901 75.88 14.6903 76.3629 14.4773C76.8459 14.2614 77.3928 14.1534 78.0036 14.1534C78.6229 14.1534 79.1655 14.2614 79.6314 14.4773C80.1001 14.6903 80.468 14.9872 80.7351 15.3679C81.0021 15.7457 81.1399 16.1804 81.1484 16.6719H79.6271ZM84.1516 19.1648V23H82.609V14.2727H84.1175V17.5668H84.1942C84.3477 17.1974 84.5849 16.9062 84.9059 16.6932C85.2298 16.4773 85.6417 16.3693 86.1417 16.3693C86.5962 16.3693 86.9925 16.4645 87.3306 16.6548C87.6687 16.8452 87.93 17.1236 88.1147 17.4901C88.3022 17.8565 88.396 18.304 88.396 18.8324V23H86.8533V19.071C86.8533 18.6307 86.7397 18.2884 86.5124 18.044C86.288 17.7969 85.9727 17.6733 85.5664 17.6733C85.2937 17.6733 85.0494 17.733 84.8335 17.8523C84.6204 17.9687 84.4528 18.1378 84.3306 18.3594C84.2113 18.581 84.1516 18.8494 84.1516 19.1648ZM89.9684 23V16.4545H91.511V23H89.9684ZM90.744 15.5256C90.4996 15.5256 90.2894 15.4446 90.1133 15.2827C89.9371 15.1179 89.8491 14.9205 89.8491 14.6903C89.8491 14.4574 89.9371 14.2599 90.1133 14.098C90.2894 13.9332 90.4996 13.8509 90.744 13.8509C90.9911 13.8509 91.2013 13.9332 91.3746 14.098C91.5508 14.2599 91.6388 14.4574 91.6388 14.6903C91.6388 14.9205 91.5508 15.1179 91.3746 15.2827C91.2013 15.4446 90.9911 15.5256 90.744 15.5256ZM96.4126 16.4545V17.6477H92.5433V16.4545H96.4126ZM93.5107 23V15.8366C93.5107 15.3963 93.6016 15.0298 93.7834 14.7372C93.968 14.4446 94.2152 14.2259 94.5249 14.081C94.8345 13.9361 95.1783 13.8636 95.5561 13.8636C95.8232 13.8636 96.0604 13.8849 96.2678 13.9276C96.4751 13.9702 96.6286 14.0085 96.728 14.0426L96.4212 15.2358C96.3558 15.2159 96.2734 15.196 96.174 15.1761C96.0746 15.1534 95.9638 15.142 95.8416 15.142C95.5547 15.142 95.3516 15.2116 95.2322 15.3509C95.1158 15.4872 95.0575 15.6832 95.0575 15.9389V23H93.5107ZM100.889 16.4545V17.6477H97.1264V16.4545H100.889ZM98.0554 14.8864H99.598V21.0312C99.598 21.2386 99.6293 21.3977 99.6918 21.5085C99.7571 21.6165 99.8423 21.6903 99.9474 21.7301C100.053 21.7699 100.169 21.7898 100.297 21.7898C100.393 21.7898 100.482 21.7827 100.561 21.7685C100.643 21.7543 100.706 21.7415 100.749 21.7301L101.009 22.9361C100.926 22.9645 100.808 22.9957 100.655 23.0298C100.504 23.0639 100.32 23.0838 100.101 23.0895C99.7145 23.1009 99.3665 23.0426 99.0568 22.9148C98.7472 22.7841 98.5014 22.5824 98.3196 22.3097C98.1406 22.0369 98.0526 21.696 98.0554 21.2869V14.8864Z" fill="#F1416C"/>
</svg>
