<svg width="67" height="66" viewBox="0 0 67 66" fill="none" xmlns="http://www.w3.org/2000/svg">
<rect x="0.710938" y="0.184326" width="65.5789" height="65.5789" rx="32.7895" fill="#F1F1F2"/>
<path d="M14.6253 29.1325C15.7779 29.1325 16.8787 29.1325 17.9794 29.1325C19.2356 29.1457 19.4429 29.3425 19.4429 30.5889C19.4429 33.8166 19.4429 37.0574 19.4429 40.2851C19.4429 40.7443 19.3652 41.2429 19.5206 41.6496C19.9479 42.6993 19.3263 43.1716 18.368 43.867C18.1478 42.7255 17.837 41.7546 17.8111 40.7836C17.7204 37.8315 17.6945 34.8794 17.7204 31.9272C17.7334 30.9825 17.4226 30.6545 16.516 30.7726C15.9333 30.8382 15.3375 30.8382 14.7548 30.812C13.5245 30.7726 12.864 30.0247 12.8899 28.7783C12.9028 28.3191 12.8769 27.8598 12.9158 27.4137C13.0842 25.4194 14.4958 23.9761 16.4772 24.0286C17.4873 24.0548 18.1867 23.7137 18.8342 23.0183C19.8443 21.9555 20.8804 20.919 21.9164 19.8825C23.082 18.6885 24.4677 18.085 26.1253 18.085C31.0595 18.0981 35.9807 18.085 40.9148 18.085C42.5725 18.085 43.9452 18.7279 45.0978 19.9087C46.2504 21.0765 47.3771 22.2704 48.5945 23.3726C48.9571 23.7006 49.5528 23.963 50.0449 23.9499C53.3862 23.9368 54.5258 26.4428 53.9819 29.4474C53.8006 30.4052 53.0624 30.812 52.13 30.812C51.1975 30.8251 50.278 30.812 49.2679 30.812C49.2679 32.9375 49.2679 34.9975 49.2679 37.0574C49.2679 38.317 49.2938 39.5897 49.2938 40.8493C49.2809 43.2241 47.7915 45.2053 45.6806 45.6645C43.4531 46.15 41.3681 45.1135 40.3838 42.9354C40.0212 42.122 39.5162 41.8464 38.6873 41.8989C37.9103 41.9514 37.1203 41.912 36.1231 41.912C36.7318 41.2035 36.667 40.2063 37.7808 40.2063C39.3737 40.2063 40.9148 40.1276 41.7955 41.9251C42.1451 42.6337 42.702 43.4078 43.3625 43.762C45.2921 44.7986 47.5714 43.3947 47.5973 41.151C47.6491 37.989 47.5455 34.8269 47.5066 31.6648C47.5066 31.5205 47.4807 31.3893 47.4807 31.245C47.4807 29.2113 47.5843 29.0932 49.5787 29.0932C50.4723 29.0932 51.3788 29.0932 52.2595 29.0932C52.9459 26.574 51.6767 25.3538 49.8118 25.6424C48.9441 25.7736 48.2707 25.4194 47.675 24.8158C46.4835 23.5956 45.2273 22.4148 44.0618 21.1814C43.1423 20.2105 42.0545 19.7382 40.7335 19.7382C35.9418 19.7513 31.1501 19.7513 26.3584 19.7382C24.9857 19.7382 23.8849 20.2105 22.9395 21.2208C21.7092 22.5066 20.453 23.7793 19.132 24.9733C18.7176 25.3538 18.0442 25.6162 17.4873 25.6293C14.8972 25.7474 14.3663 26.3247 14.6253 29.1325Z" fill="#5E6278"/>
<path d="M23.5088 42.6076C22.2396 43.9197 21.0093 45.1924 19.7661 46.4782C19.3516 46.8981 18.8854 47.3179 18.3415 46.8062C17.7458 46.2421 18.1602 45.7304 18.6005 45.2842C19.8567 44.0247 21.1129 42.7651 22.408 41.453C20.828 39.1963 20.1416 36.7558 20.8021 34.0661C21.2554 32.2423 22.2526 30.681 23.7419 29.592C27.5493 26.8235 31.9266 27.3746 35.1642 30.8909C37.586 33.5282 37.6119 38.291 35.216 41.3218C32.4187 44.8644 28.158 45.363 23.5088 42.6076ZM28.7667 29.5001C25.2571 29.5264 22.2267 32.6491 22.2526 36.2179C22.2914 39.8917 25.2441 42.7913 28.8962 42.752C32.5223 42.7126 35.3973 39.7342 35.3585 36.0342C35.3196 32.4654 32.3022 29.4739 28.7667 29.5001Z" fill="#5E6278"/>
<path d="M37.7159 38.8549C38.0137 36.9655 37.8065 37.2411 39.4253 37.2148C39.9045 37.2017 40.3837 37.2148 40.9535 37.2148C40.9535 36.4538 40.9535 35.7847 40.9535 35.0237C40.4355 34.9974 39.9174 34.8794 39.4253 34.945C38.1821 35.1155 37.6382 34.6038 37.7029 33.2786C39.1663 33.2786 40.6686 33.2393 42.1708 33.318C42.3651 33.3311 42.6889 33.8691 42.7018 34.184C42.7536 35.4435 42.7407 36.7162 42.6371 37.9627C42.6112 38.2776 42.1449 38.7893 41.8471 38.8155C40.5132 38.9074 39.1663 38.8549 37.7159 38.8549Z" fill="#5E6278"/>
<path d="M22.188 45.5988C23.5219 43.8275 23.5219 43.8275 25.4645 44.9559C24.2342 45.3495 23.2629 45.6513 22.2916 45.9531C22.2527 45.835 22.2268 45.7169 22.188 45.5988Z" fill="#5E6278"/>
<path d="M34.2061 34.9581C31.37 34.9581 28.7151 34.9581 25.9955 34.9581C25.9955 35.7191 25.9955 36.3751 25.9955 37.1624C28.6892 37.1624 31.37 37.1624 34.0507 37.1624C34.0507 38.6056 33.8306 38.8681 32.6521 38.8681C30.2951 38.8681 27.9251 38.8418 25.5681 38.8812C24.6357 38.8943 24.2342 38.5532 24.2731 37.5822C24.3249 36.467 24.286 35.3386 24.286 34.2102C24.286 33.5673 24.5968 33.2393 25.2444 33.2393C27.7438 33.2262 30.2303 33.1999 32.7298 33.1737C33.8306 33.1475 33.9342 33.9741 34.2061 34.9581Z" fill="#5E6278"/>
<path d="M14.6253 29.1325C15.7779 29.1325 16.8787 29.1325 17.9794 29.1325C19.2356 29.1457 19.4429 29.3425 19.4429 30.5889C19.4429 33.8166 19.4429 37.0574 19.4429 40.2851C19.4429 40.7443 19.3652 41.2429 19.5206 41.6496C19.9479 42.6993 19.3263 43.1716 18.368 43.867C18.1478 42.7255 17.837 41.7546 17.8111 40.7836C17.7204 37.8315 17.6945 34.8794 17.7204 31.9272C17.7334 30.9825 17.4226 30.6545 16.516 30.7726C15.9333 30.8382 15.3375 30.8382 14.7548 30.812C13.5245 30.7726 12.864 30.0247 12.8899 28.7783C12.9028 28.3191 12.8769 27.8598 12.9158 27.4137C13.0842 25.4194 14.4958 23.9761 16.4772 24.0286C17.4873 24.0548 18.1867 23.7137 18.8342 23.0183C19.8443 21.9555 20.8804 20.919 21.9164 19.8825C23.082 18.6885 24.4677 18.085 26.1253 18.085C31.0595 18.0981 35.9807 18.085 40.9148 18.085C42.5725 18.085 43.9452 18.7279 45.0978 19.9087C46.2504 21.0765 47.3771 22.2704 48.5945 23.3726C48.9571 23.7006 49.5528 23.963 50.0449 23.9499C53.3862 23.9368 54.5258 26.4428 53.9819 29.4474C53.8006 30.4052 53.0624 30.812 52.13 30.812C51.1975 30.8251 50.278 30.812 49.2679 30.812C49.2679 32.9375 49.2679 34.9975 49.2679 37.0574C49.2679 38.317 49.2938 39.5897 49.2938 40.8493C49.2809 43.2241 47.7915 45.2053 45.6806 45.6645C43.4531 46.15 41.3681 45.1135 40.3838 42.9354C40.0212 42.122 39.5162 41.8464 38.6873 41.8989C37.9103 41.9514 37.1203 41.912 36.1231 41.912C36.7318 41.2035 36.667 40.2063 37.7808 40.2063C39.3737 40.2063 40.9148 40.1276 41.7955 41.9251C42.1451 42.6337 42.702 43.4078 43.3625 43.762C45.2921 44.7986 47.5714 43.3947 47.5973 41.151C47.6491 37.989 47.5455 34.8269 47.5066 31.6648C47.5066 31.5205 47.4807 31.3893 47.4807 31.245C47.4807 29.2113 47.5843 29.0932 49.5787 29.0932C50.4723 29.0932 51.3788 29.0932 52.2595 29.0932C52.9459 26.574 51.6767 25.3538 49.8118 25.6424C48.9441 25.7736 48.2707 25.4194 47.675 24.8158C46.4835 23.5956 45.2273 22.4148 44.0618 21.1814C43.1423 20.2105 42.0545 19.7382 40.7335 19.7382C35.9418 19.7513 31.1501 19.7513 26.3584 19.7382C24.9857 19.7382 23.8849 20.2105 22.9395 21.2208C21.7092 22.5066 20.453 23.7793 19.132 24.9733C18.7176 25.3538 18.0442 25.6162 17.4873 25.6293C14.8972 25.7474 14.3663 26.3247 14.6253 29.1325Z" fill="#5E6278"/>
<path d="M23.5088 42.6076C22.2396 43.9197 21.0093 45.1924 19.7661 46.4782C19.3516 46.8981 18.8854 47.3179 18.3415 46.8062C17.7458 46.2421 18.1602 45.7304 18.6005 45.2842C19.8567 44.0247 21.1129 42.7651 22.408 41.453C20.828 39.1963 20.1416 36.7558 20.8021 34.0661C21.2554 32.2423 22.2526 30.681 23.7419 29.592C27.5493 26.8235 31.9266 27.3746 35.1642 30.8909C37.586 33.5282 37.6119 38.291 35.216 41.3218C32.4187 44.8644 28.158 45.363 23.5088 42.6076ZM28.7667 29.5001C25.2571 29.5264 22.2267 32.6491 22.2526 36.2179C22.2914 39.8917 25.2441 42.7913 28.8962 42.752C32.5223 42.7126 35.3973 39.7342 35.3585 36.0342C35.3196 32.4654 32.3022 29.4739 28.7667 29.5001Z" fill="#5E6278"/>
<path d="M37.7159 38.8549C38.0137 36.9655 37.8065 37.2411 39.4253 37.2148C39.9045 37.2017 40.3837 37.2148 40.9535 37.2148C40.9535 36.4538 40.9535 35.7847 40.9535 35.0237C40.4355 34.9974 39.9174 34.8794 39.4253 34.945C38.1821 35.1155 37.6382 34.6038 37.7029 33.2786C39.1663 33.2786 40.6686 33.2393 42.1708 33.318C42.3651 33.3311 42.6889 33.8691 42.7018 34.184C42.7536 35.4435 42.7407 36.7162 42.6371 37.9627C42.6112 38.2776 42.1449 38.7893 41.8471 38.8155C40.5132 38.9074 39.1663 38.8549 37.7159 38.8549Z" fill="#5E6278"/>
<path d="M22.188 45.5988C23.5219 43.8275 23.5219 43.8275 25.4645 44.9559C24.2342 45.3495 23.2629 45.6513 22.2916 45.9531C22.2527 45.835 22.2268 45.7169 22.188 45.5988Z" fill="#5E6278"/>
<path d="M34.2061 34.9581C31.37 34.9581 28.7151 34.9581 25.9955 34.9581C25.9955 35.7191 25.9955 36.3751 25.9955 37.1624C28.6892 37.1624 31.37 37.1624 34.0507 37.1624C34.0507 38.6056 33.8306 38.8681 32.6521 38.8681C30.2951 38.8681 27.9251 38.8418 25.5681 38.8812C24.6357 38.8943 24.2342 38.5532 24.2731 37.5822C24.3249 36.467 24.286 35.3386 24.286 34.2102C24.286 33.5673 24.5968 33.2393 25.2444 33.2393C27.7438 33.2262 30.2303 33.1999 32.7298 33.1737C33.8306 33.1475 33.9342 33.9741 34.2061 34.9581Z" fill="#5E6278"/>
</svg>
