<svg width="66" height="67" viewBox="0 0 66 67" fill="none" xmlns="http://www.w3.org/2000/svg">
<rect x="0.184082" y="0.885986" width="65.5789" height="65.5789" rx="32.7895" fill="#E8FFF3"/>
<path d="M27.1206 52.4238C25.959 52.2188 25.1292 51.4867 24.3287 50.6764C21.4001 47.7186 18.452 44.79 15.5137 41.8419C13.7956 40.1238 13.7956 37.9762 15.5137 36.2581C20.8339 30.9378 26.164 25.6273 31.4745 20.2973C32.3335 19.4382 33.3292 19.0185 34.5495 19.0282C36.7069 19.0575 38.8643 19.038 41.0216 19.038C41.1583 19.038 41.2852 19.038 41.4414 19.038C41.6562 18.218 41.9783 17.4565 42.5347 16.822C43.9698 15.1918 45.7757 14.567 47.8648 15.143C49.9831 15.7189 51.2326 17.1832 51.6426 19.3601C51.6524 19.4285 51.6915 19.4968 51.711 19.5651C51.711 19.9361 51.711 20.2973 51.711 20.6682C51.5548 21.2149 51.4572 21.7908 51.2229 22.3082C50.5884 23.7335 49.4755 24.6609 47.9917 25.1197C47.8745 25.1587 47.7574 25.188 47.6207 25.2271C47.6207 25.7347 47.6207 26.2325 47.6207 26.7402C47.6207 28.5559 47.6012 30.3716 47.6305 32.1971C47.65 33.3783 47.24 34.3545 46.4005 35.1745C44.4969 37.0585 42.6031 38.9719 40.6995 40.8657C40.6019 40.9633 40.514 41.0609 40.4066 41.139C40.1138 41.344 39.7135 41.2952 39.4695 41.0414C39.2254 40.7778 39.1962 40.3971 39.4109 40.1043C39.489 39.9969 39.5866 39.909 39.6843 39.8114C41.5585 37.9371 43.4231 36.0628 45.3071 34.1983C45.9026 33.6126 46.176 32.9488 46.1662 32.1092C46.1467 29.0635 46.1174 26.008 46.176 22.9623C46.1955 21.5175 45.1412 20.4144 43.7159 20.512C43.4426 20.5316 43.1595 20.512 42.8471 20.512C42.8959 21.3223 43.2181 21.9861 43.7159 22.5718C43.7843 22.6597 43.8721 22.728 43.9307 22.8159C44.1845 23.1575 44.1552 23.5675 43.8428 23.8311C43.55 24.0849 43.1497 24.0751 42.8471 23.7823C42.1443 23.0892 41.6855 22.2497 41.4609 21.293C41.4024 21.0489 41.4414 20.678 41.295 20.5706C41.0997 20.4339 40.7581 20.5023 40.4847 20.5023C38.4738 20.5023 36.4628 20.512 34.4421 20.4925C33.6904 20.4827 33.0754 20.7463 32.5483 21.2735C27.1792 26.6523 21.8004 32.0214 16.4313 37.4002C15.4258 38.4057 15.4258 39.6943 16.4313 40.6997C19.5942 43.8724 22.757 47.0352 25.9297 50.1981C26.9547 51.2134 28.2335 51.2231 29.2585 50.1981C31.0352 48.4214 32.8118 46.6448 34.5885 44.8681C34.6764 44.7802 34.7545 44.6924 34.8521 44.6143C35.1645 44.3605 35.5745 44.38 35.8478 44.6533C36.1016 44.9169 36.1211 45.3269 35.8869 45.6198C35.8088 45.7174 35.7209 45.7955 35.633 45.8833C34.0321 47.4843 32.4116 49.0755 30.8302 50.7057C30.0395 51.516 29.2194 52.2188 28.0578 52.4141C27.7552 52.4238 27.433 52.4238 27.1206 52.4238ZM47.611 23.6554C49.251 23.2356 50.4224 21.4589 50.2369 19.7799C50.0222 17.847 48.4505 16.412 46.5469 16.4023C44.9167 16.3925 43.2181 17.642 43.0228 19.0477C44.3309 18.9501 45.5512 19.1161 46.5371 20.0825C47.5329 21.0685 47.7281 22.2985 47.611 23.6554Z" fill="#50CD89"/>
<path d="M30.6543 37.1465C31.24 37.1855 31.8258 37.2246 32.4017 37.2636C32.5969 37.2734 32.7922 37.2734 32.9874 37.3027C33.456 37.3612 33.7489 37.6932 33.7 38.1032C33.661 38.5132 33.3389 38.7767 32.8703 38.7474C32.1381 38.7084 31.406 38.6596 30.6836 38.6108C30.4396 38.5913 30.2053 38.5815 29.8441 38.562C30.2931 39.011 30.6934 39.3722 31.0448 39.7822C31.201 39.9579 31.3377 40.2313 31.3279 40.4558C31.3084 41.022 30.6348 41.2953 30.176 40.9536C30.0881 40.8853 30.01 40.8072 29.9319 40.7291C28.5848 39.382 27.2376 38.0446 25.9003 36.6974C25.4122 36.2093 25.4122 35.8481 25.9003 35.36C26.2712 34.9891 26.6324 34.6084 27.0229 34.2569C28.4188 33.0172 30.5177 33.6908 30.8886 35.4772C30.9765 35.8872 30.9277 36.1996 30.6543 37.1465ZM28.575 37.2441C28.8191 36.9805 29.0729 36.7462 29.2779 36.4827C29.5512 36.1215 29.5219 35.6236 29.2388 35.3405C28.946 35.0477 28.4286 35.0184 28.0674 35.3112C27.8136 35.526 27.5988 35.7993 27.3743 36.0434C27.755 36.4241 28.1455 36.8243 28.575 37.2441Z" fill="#50CD89"/>
<path d="M36.3062 27.0233C36.6967 27.4137 37.0676 27.7847 37.4679 28.1947C37.8193 27.8335 38.1805 27.4333 38.5612 27.0623C38.9517 26.6914 39.5081 26.7597 39.7424 27.199C39.9279 27.5406 39.84 27.8433 39.5862 28.0971C39.2153 28.468 38.8346 28.8292 38.4538 29.2002C38.8541 29.5809 39.2348 29.9323 39.6838 30.3521C40.0548 29.9518 40.4746 29.5028 40.9041 29.0635C41.1579 28.8097 41.4605 28.7706 41.7729 28.9561C42.0755 29.1318 42.1829 29.4052 42.1048 29.7371C42.0755 29.8835 41.9779 30.0299 41.8705 30.1373C41.3043 30.723 40.7284 31.299 40.1427 31.8749C39.7619 32.2557 39.3715 32.2459 38.9907 31.8652C37.585 30.4595 36.1695 29.0537 34.7736 27.648C34.3929 27.2673 34.3929 26.8768 34.7638 26.4961C35.33 25.9202 35.8962 25.354 36.4722 24.7878C36.8236 24.4461 37.2726 24.4266 37.5753 24.7292C37.8779 25.0318 37.8584 25.4516 37.5167 25.803C37.1262 26.2228 36.7065 26.6328 36.3062 27.0233Z" fill="#50CD89"/>
<path d="M32.0501 31.2795C32.4504 31.67 32.8213 32.041 33.2216 32.4412C33.5535 32.0995 33.8952 31.7383 34.2466 31.3772C34.6371 30.9867 35.0471 30.9574 35.3692 31.2795C35.6914 31.6017 35.6718 32.0214 35.2814 32.4119C34.9299 32.7633 34.5687 33.1148 34.2075 33.4662C34.6078 33.8469 34.9885 34.2081 35.4083 34.6084C35.7987 34.2081 36.2087 33.7688 36.6383 33.3491C36.8921 33.0953 37.1947 33.0367 37.5071 33.2026C37.8097 33.3686 37.9464 33.6419 37.8683 33.9738C37.839 34.13 37.7414 34.296 37.634 34.4131C37.0678 34.9988 36.4918 35.5748 35.9061 36.1507C35.5352 36.5119 35.1447 36.5217 34.7737 36.1507C33.3582 34.745 31.9428 33.3295 30.5273 31.9043C30.1466 31.5236 30.1563 31.1429 30.537 30.7524C31.1032 30.1764 31.6694 29.6102 32.2454 29.044C32.5871 28.7121 33.0263 28.6926 33.3192 28.9757C33.6413 29.2783 33.6316 29.7176 33.2802 30.0788C32.8799 30.4791 32.4602 30.8793 32.0501 31.2795Z" fill="#50CD89"/>
<path d="M23.1183 40.2215C23.499 40.5924 23.8505 40.9341 24.2702 41.3539C24.5924 41.0122 24.9341 40.6315 25.2855 40.2703C25.5393 40.0165 25.8419 39.9774 26.1543 40.1434C26.4569 40.3093 26.5838 40.5827 26.5057 40.9146C26.4667 41.0805 26.3495 41.2465 26.2324 41.3734C25.9103 41.7053 25.5686 42.0177 25.2074 42.3691C25.3148 42.4862 25.3929 42.5741 25.471 42.6522C25.9395 43.1305 26.4276 43.5991 26.8864 44.0774C27.1988 44.3996 27.1891 44.8389 26.906 45.122C26.6229 45.4051 26.1738 45.4148 25.8614 45.1024C24.4167 43.6674 22.9817 42.2324 21.5467 40.7877C21.2148 40.4558 21.2245 40.0555 21.5662 39.7138C22.1226 39.1477 22.679 38.5912 23.2452 38.0348C23.5869 37.7029 24.0262 37.6931 24.3191 37.9762C24.6217 38.2788 24.6217 38.6986 24.2898 39.05C23.9091 39.4503 23.499 39.831 23.1183 40.2215Z" fill="#50CD89"/>
<path d="M37.6733 43.5697C37.2828 43.5697 36.9411 43.2476 36.9411 42.8571C36.9314 42.4569 37.2828 42.1054 37.683 42.1152C38.0735 42.125 38.3956 42.4569 38.3956 42.8473C38.3956 43.2476 38.0735 43.5697 37.6733 43.5697Z" fill="#50CD89"/>
</svg>
