<svg width="43" height="42" viewBox="0 0 43 42" fill="none" xmlns="http://www.w3.org/2000/svg">
<rect x="0.5" width="42" height="42" rx="21" fill="#FFEBF1"/>
<g clip-path="url(#clip0_256_13881)">
<path d="M7.78711 19.3123C10.398 19.3123 12.9648 19.3123 15.5537 19.3123C15.5537 19.1872 15.5537 19.0843 15.5537 18.9739C15.5537 17.7751 15.5611 16.5836 15.5464 15.3848C15.4949 10.6484 12.2073 10.2365 11.9646 10.2071C11.6925 10.1924 11.4204 10.1997 11.1409 10.2439C9.10361 10.5748 7.78711 12.1414 7.78711 14.2154C7.78711 15.8114 7.78711 17.4074 7.78711 19.0107C7.78711 19.1063 7.78711 19.2093 7.78711 19.3123ZM10.8026 13.6491C11.3762 13.6491 11.9352 13.6491 12.5162 13.6491C12.5162 14.2081 12.5162 14.767 12.5162 15.3554C11.9573 15.3554 11.3909 15.3554 10.8026 15.3554C10.8026 14.7817 10.8026 14.2301 10.8026 13.6491Z" fill="black"/>
<path d="M6.5 25.0562C9.98615 25.0562 13.4576 25.0562 16.9437 25.0562C16.9437 23.7323 16.9437 22.4232 16.9437 21.1067C13.4576 21.1067 9.9935 21.1067 6.5 21.1067C6.5 22.4379 6.5 23.7323 6.5 25.0562Z" fill="black"/>
<path d="M30.9473 16.3115C30.9914 16.3409 31.0061 16.3557 31.0208 16.3557C32.8374 16.3557 34.6541 16.3483 36.478 16.3483C36.4854 16.3336 36.4927 16.3115 36.5001 16.2968C36.4927 16.2012 36.478 16.1056 36.478 16.01C36.478 14.3993 36.478 12.9283 36.478 11.6118C36.478 11.4868 36.4707 11.3618 36.4707 11.1338C36.2795 11.2441 36.125 11.2956 36.022 11.3986C34.6099 12.7592 33.1978 14.1345 31.7857 15.5025C31.5062 15.7673 31.2341 16.0394 30.9473 16.3115Z" fill="#F1416C"/>
<path d="M13.546 16.4514C13.6195 16.2748 13.6931 16.1866 13.9063 16.2013C14.1858 16.2234 14.4727 16.1939 14.7595 16.2086C14.9654 16.2234 15.1052 16.1498 15.2449 16.0101C15.9951 15.2672 16.76 14.5391 17.5175 13.8036C18.4369 12.9137 19.3562 12.0164 20.327 11.075C20.1579 11.0677 20.0623 11.0677 19.9667 11.0677C17.8264 11.0677 15.6788 11.0677 13.5386 11.0603C13.3842 11.0603 13.1929 10.9868 13.0753 10.8838C12.8105 10.6558 12.7664 11.4428 12.4722 11.2883C12.6855 11.3913 15.3258 12.0606 13.546 16.4514Z" fill="black"/>
<path d="M24.2617 16.2086C25.5488 16.2086 26.7844 16.2013 28.0126 16.216C28.2553 16.216 28.4319 16.1498 28.6084 15.9733C29.4468 15.1569 30.2926 14.3405 31.1384 13.5241C31.9621 12.7225 32.7932 11.9208 33.6684 11.0677C32.3519 11.0677 31.109 11.075 29.866 11.0603C29.6307 11.0603 29.4615 11.1339 29.2997 11.2957C27.6964 12.8622 26.0857 14.4141 24.475 15.9806C24.4088 16.0321 24.3573 16.1057 24.2617 16.2086Z" fill="black"/>
<path d="M17.6133 16.2011C17.753 16.2011 17.8486 16.2085 17.9516 16.2085C19.1063 16.2085 20.261 16.2085 21.4157 16.2158C21.6143 16.2158 21.7614 16.157 21.9085 16.0173C23.5191 14.4433 25.1372 12.8768 26.7552 11.3102C26.8214 11.244 26.8803 11.1778 26.9612 11.0896C26.9023 11.0749 26.8803 11.0602 26.8508 11.0602C25.5785 11.0602 24.3061 11.0528 23.0337 11.0602C22.9234 11.0602 22.7984 11.1411 22.7101 11.222C21.0627 12.8106 19.4152 14.4066 17.7751 16.0025C17.7236 16.054 17.6868 16.1129 17.6133 16.2011Z" fill="#F1416C"/>
<path d="M25.7089 31.1991C24.5524 31.1991 23.4001 31.1991 22.2435 31.1991C21.4059 31.1991 20.8999 30.7061 20.8999 29.8886C20.8999 28.1509 20.8999 26.4091 20.8999 24.6714C20.8999 24.047 21.1805 23.6526 21.7928 23.4431C21.9204 23.3979 21.9289 23.3281 21.9289 23.2254C21.9289 22.6914 21.9204 22.1573 21.9331 21.6233C21.9629 20.0992 23.0344 18.8504 24.5822 18.6655C25.373 18.571 26.2064 18.5751 26.993 18.7025C28.4005 18.9325 29.4082 20.1896 29.4337 21.5822C29.4422 22.1162 29.438 22.6503 29.4337 23.1843C29.4337 23.324 29.4592 23.3979 29.6208 23.4472C30.1608 23.6033 30.4925 24.0347 30.4967 24.5811C30.501 26.3886 30.501 28.1961 30.4967 30.0036C30.4967 30.6774 29.9567 31.1909 29.2466 31.195C28.0646 31.2032 26.8867 31.1991 25.7089 31.1991ZM28.392 23.3774C28.4005 23.3404 28.409 23.3158 28.409 23.2911C28.409 22.7078 28.4302 22.1286 28.4047 21.5452C28.3579 20.4566 27.4438 19.6309 26.317 19.6227C25.9215 19.6186 25.5218 19.6227 25.1264 19.6227C23.8551 19.6227 22.9621 20.4813 22.9494 21.7137C22.9451 22.0957 22.9494 22.4819 22.9494 22.8639C22.9494 23.0323 22.9494 23.2008 22.9494 23.3815C24.782 23.3774 26.5806 23.3774 28.392 23.3774ZM25.7812 25.1603C25.1944 25.1603 24.6842 25.5341 24.5439 26.0723C24.4078 26.594 24.6544 27.1486 25.1647 27.4115C25.2922 27.4772 25.3305 27.5553 25.3263 27.6826C25.3178 28.0318 25.322 28.381 25.322 28.7302C25.3263 29.0629 25.4878 29.2272 25.8025 29.2272C26.1171 29.2272 26.283 29.0629 26.2872 28.7343C26.2872 28.3728 26.2915 28.0071 26.283 27.6456C26.2787 27.5224 26.3212 27.4526 26.436 27.3868C26.9335 27.0952 27.1504 26.5652 27.0016 26.0435C26.8527 25.5259 26.3467 25.1603 25.7812 25.1603Z" fill="black"/>
</g>
<defs>
<clipPath id="clip0_256_13881">
<rect width="30" height="30" fill="white" transform="translate(6.5 6)"/>
</clipPath>
</defs>
</svg>
