<svg width="67" height="67" viewBox="0 0 67 67" fill="none" xmlns="http://www.w3.org/2000/svg">
<rect x="0.710449" y="0.885986" width="65.5789" height="65.5789" rx="32.7895" fill="#FFEBF1"/>
<path d="M20.0587 37.131C15.9181 35.4989 13.6816 32.2801 13.8025 28.2907C13.9234 24.5883 16.4319 21.3393 20.1041 20.2059C22.265 19.541 24.3807 19.6921 26.4358 20.614C28.4608 21.5207 29.9266 23.0469 31.0449 25.2835C33.629 22.6087 36.1829 20.085 38.5856 17.4405C39.9154 15.9747 42.3333 15.8689 43.5422 17.4556C43.9956 18.045 44.6152 18.5134 45.1441 19.0575C45.7032 19.6317 45.6881 20.0246 45.1441 20.614C44.993 20.7802 44.8267 20.9313 44.6756 21.1126C43.8142 22.1553 43.8445 23.5456 44.7209 24.4825C45.6428 25.4497 47.0481 25.5857 48.1362 24.7848C48.3629 24.6185 48.5442 24.4221 48.7406 24.2256C49.33 23.6665 49.7985 23.6514 50.3727 24.2105C51.0074 24.8301 51.627 25.4497 52.2465 26.0693C53.4857 27.3084 53.4857 29.1369 52.2314 30.3761C48.3024 34.2598 44.3885 38.1284 40.4595 41.9969C37.9811 44.4299 35.5028 46.878 33.0396 49.311C31.6645 50.6559 29.9266 50.671 28.5515 49.3412C27.9923 48.7972 27.4332 48.2532 26.8741 47.7091C26.1034 46.9384 26.1185 46.606 26.8439 45.8202C27.2065 45.4273 27.5541 44.9437 27.7203 44.445C28.0679 43.4023 27.5994 42.3294 26.6474 41.7098C25.6954 41.0902 24.5771 41.1507 23.6251 41.8912C22.1895 43.0094 22.1895 43.0094 20.7992 41.8307C20.1041 41.2414 19.4089 40.6671 18.7289 40.0626C18.0942 39.5035 18.0942 39.0653 18.6836 38.4759C19.1067 38.0226 19.5449 37.6297 20.0587 37.131ZM28.491 46.8024C28.8537 47.1349 29.2466 47.4976 29.6244 47.8603C30.4858 48.7065 31.0751 48.7216 31.9214 47.8754C35.7748 44.0823 39.6283 40.2893 43.4818 36.4812C43.648 36.315 43.8142 36.1185 44.0107 35.9069C40.4746 32.2801 36.9989 28.6987 33.357 24.951C32.7676 25.6008 32.2236 26.1902 31.7098 26.8097C31.5889 26.9457 31.5738 27.2329 31.5889 27.4293C32.3445 33.2926 27.5239 37.5843 22.7486 37.4786C22.537 37.4786 22.265 37.4937 22.1139 37.6146C21.5548 38.0981 21.0259 38.627 20.4516 39.1711C21.1014 39.7151 21.6606 40.1835 22.2046 40.6369C24.8642 39.1257 26.7683 39.1862 28.3701 40.788C29.9115 42.3294 29.9569 44.1881 28.491 46.8024ZM29.8662 28.6987C29.8813 24.7697 26.7381 21.6113 22.7939 21.5962C18.8196 21.5962 15.631 24.6941 15.6008 28.608C15.5706 32.5219 18.7138 35.6652 22.6882 35.6803C26.6776 35.7105 29.8511 32.6277 29.8662 28.6987ZM34.8984 23.9536C38.2985 27.4444 41.8044 31.041 45.4765 34.7887C47.3655 32.8242 49.2091 30.9352 51.0225 29.016C51.4607 28.5476 51.5061 27.9582 51.083 27.4444C50.6296 26.8853 50.1158 26.3866 49.6473 25.8728C47.4259 27.3386 45.3707 27.4293 43.8596 26.0693C43.2551 25.5252 42.7413 24.7545 42.4693 23.9838C41.9404 22.4878 42.4542 21.0824 43.376 19.8584C42.8471 19.3295 42.3938 18.861 41.9253 18.4077C41.3964 17.8939 40.7466 17.909 40.2932 18.3623C38.4798 20.1908 36.7269 22.0647 34.8984 23.9536Z" fill="#D9214E"/>
<path d="M23.2017 26.8854C23.2017 27.5957 23.2168 28.2908 23.2017 29.001C23.1866 29.5904 22.8995 29.9984 22.3101 30.0135C21.7056 30.0286 21.4034 29.6357 21.3883 29.0464C21.3732 27.641 21.3732 26.2356 21.3883 24.8151C21.3883 24.2258 21.6452 23.8177 22.2799 23.8177C22.9448 23.8177 23.2017 24.2409 23.2017 24.8605C23.2168 25.5254 23.2017 26.2054 23.2017 26.8854Z" fill="#D9214E"/>
<path d="M21.3887 32.3859C21.3887 31.6908 21.7665 31.2375 22.3256 31.2526C22.8696 31.2828 23.2172 31.7512 23.2021 32.4313C23.187 33.0357 22.9603 33.4589 22.2954 33.4891C21.7211 33.5344 21.3887 33.1113 21.3887 32.3859Z" fill="#D9214E"/>
</svg>
