<svg width="116" height="38" viewBox="0 0 116 38" fill="none" xmlns="http://www.w3.org/2000/svg">
<rect width="116" height="38" rx="6" fill="white"/>
<path d="M19.3427 19.0049C19.3427 20.8768 19.3427 22.7487 19.3427 24.6206C19.3427 25.3547 18.9005 25.9601 18.2093 26.1361C17.7499 26.252 17.269 26.2563 16.8096 26.1189C16.1614 25.9343 15.7363 25.329 15.7363 24.6206C15.7363 22.6585 15.7363 20.6922 15.7363 18.7302C15.7363 16.9613 15.7363 15.1882 15.7363 13.4194C15.7363 12.4319 16.3889 11.7751 17.3807 11.7794C17.6468 11.7794 17.9216 11.7708 18.1792 11.8309C18.8833 11.9983 19.3427 12.6123 19.3427 13.3593C19.3427 15.2397 19.3427 17.1245 19.3427 19.0049Z" fill="#F1416C"/>
<path d="M26.04 19.0007C26.04 20.8725 26.04 22.7444 26.04 24.6163C26.04 25.359 25.5978 25.9687 24.898 26.1404C24.4429 26.2563 23.9706 26.2563 23.5156 26.1232C22.8673 25.9386 22.4379 25.329 22.4379 24.6249C22.4337 23.221 22.4379 21.8128 22.4379 20.4089C22.4379 18.0819 22.4379 15.7507 22.4379 13.4237C22.4379 12.4234 23.0905 11.7708 24.0909 11.7751C24.3527 11.7751 24.6232 11.7665 24.8722 11.8266C25.5763 11.9897 26.04 12.6123 26.04 13.3679C26.04 15.2441 26.04 17.1202 26.04 19.0007Z" fill="#F1416C"/>
<path d="M38.8608 23V14.2727H42.1335C42.804 14.2727 43.3665 14.3977 43.821 14.6477C44.2784 14.8977 44.6236 15.2415 44.8565 15.679C45.0923 16.1136 45.2102 16.608 45.2102 17.1619C45.2102 17.7216 45.0923 18.2187 44.8565 18.6534C44.6207 19.0881 44.2727 19.4304 43.8125 19.6804C43.3523 19.9276 42.7855 20.0511 42.1122 20.0511H39.9432V18.7514H41.8991C42.2912 18.7514 42.6122 18.6832 42.8622 18.5469C43.1122 18.4105 43.2969 18.223 43.4162 17.9844C43.5384 17.7457 43.5994 17.4716 43.5994 17.1619C43.5994 16.8523 43.5384 16.5795 43.4162 16.3438C43.2969 16.108 43.1108 15.9247 42.858 15.794C42.608 15.6605 42.2855 15.5938 41.8906 15.5938H40.4418V23H38.8608ZM48.2816 23.1321C47.8668 23.1321 47.4933 23.0582 47.1609 22.9105C46.8313 22.7599 46.57 22.5384 46.3768 22.2457C46.1864 21.9531 46.0913 21.5923 46.0913 21.1634C46.0913 20.794 46.1594 20.4886 46.2958 20.2472C46.4322 20.0057 46.6183 19.8125 46.854 19.6676C47.0898 19.5227 47.3555 19.4134 47.6509 19.3395C47.9492 19.2628 48.2575 19.2074 48.5756 19.1733C48.9592 19.1335 49.2702 19.098 49.5089 19.0668C49.7475 19.0327 49.9208 18.9815 50.0288 18.9134C50.1396 18.8423 50.195 18.733 50.195 18.5852V18.5597C50.195 18.2386 50.0998 17.9901 49.9094 17.8139C49.7191 17.6378 49.445 17.5497 49.087 17.5497C48.7092 17.5497 48.4094 17.6321 48.1879 17.7969C47.9691 17.9616 47.8214 18.1562 47.7447 18.3807L46.3043 18.1761C46.418 17.7784 46.6055 17.446 46.8668 17.179C47.1282 16.9091 47.4478 16.7074 47.8256 16.5739C48.2035 16.4375 48.6211 16.3693 49.0785 16.3693C49.3938 16.3693 49.7077 16.4062 50.0202 16.4801C50.3327 16.554 50.6183 16.6761 50.8768 16.8466C51.1353 17.0142 51.3427 17.2429 51.4989 17.5327C51.658 17.8224 51.7376 18.1847 51.7376 18.6193V23H50.2546V22.1009H50.2035C50.1097 22.2827 49.9776 22.4531 49.8072 22.6122C49.6396 22.7685 49.4279 22.8949 49.1722 22.9915C48.9194 23.0852 48.6225 23.1321 48.2816 23.1321ZM48.6822 21.9986C48.9918 21.9986 49.2603 21.9375 49.4876 21.8153C49.7148 21.6903 49.8896 21.5256 50.0117 21.321C50.1367 21.1165 50.1992 20.8935 50.1992 20.652V19.8807C50.1509 19.9205 50.0685 19.9574 49.9521 19.9915C49.8384 20.0256 49.7106 20.0554 49.5685 20.081C49.4265 20.1065 49.2859 20.1293 49.1467 20.1491C49.0075 20.169 48.8867 20.1861 48.7844 20.2003C48.5543 20.2315 48.3484 20.2827 48.1665 20.3537C47.9847 20.4247 47.8413 20.5241 47.7362 20.652C47.631 20.777 47.5785 20.9389 47.5785 21.1378C47.5785 21.4219 47.6822 21.6364 47.8896 21.7812C48.0969 21.9261 48.3612 21.9986 48.6822 21.9986ZM57.4606 20.2472V16.4545H59.0032V23H57.5075V21.8366H57.4393C57.2915 22.2031 57.0487 22.5028 56.7106 22.7358C56.3754 22.9687 55.962 23.0852 55.4705 23.0852C55.0415 23.0852 54.6623 22.9901 54.3327 22.7997C54.006 22.6065 53.7504 22.3267 53.5657 21.9602C53.381 21.5909 53.2887 21.1449 53.2887 20.6222V16.4545H54.8313V20.3835C54.8313 20.7983 54.945 21.1278 55.1722 21.3722C55.3995 21.6165 55.6978 21.7386 56.0671 21.7386C56.2944 21.7386 56.5146 21.6832 56.7276 21.5724C56.9407 21.4616 57.1154 21.2969 57.2518 21.0781C57.391 20.8565 57.4606 20.5795 57.4606 20.2472ZM65.7628 18.1847L64.3565 18.3381C64.3168 18.196 64.2472 18.0625 64.1477 17.9375C64.0511 17.8125 63.9205 17.7116 63.7557 17.6349C63.5909 17.5582 63.3892 17.5199 63.1506 17.5199C62.8295 17.5199 62.5597 17.5895 62.3409 17.7287C62.125 17.8679 62.0185 18.0483 62.0213 18.2699C62.0185 18.4602 62.0881 18.6151 62.2301 18.7344C62.375 18.8537 62.6136 18.9517 62.946 19.0284L64.0625 19.267C64.6818 19.4006 65.142 19.6122 65.4432 19.902C65.7472 20.1918 65.9006 20.571 65.9034 21.0398C65.9006 21.4517 65.7798 21.8153 65.5412 22.1307C65.3054 22.4432 64.9773 22.6875 64.5568 22.8636C64.1364 23.0398 63.6534 23.1278 63.108 23.1278C62.3068 23.1278 61.6619 22.9602 61.1733 22.625C60.6847 22.2869 60.3935 21.8168 60.2997 21.2145L61.804 21.0696C61.8722 21.3651 62.017 21.5881 62.2386 21.7386C62.4602 21.8892 62.7486 21.9645 63.1037 21.9645C63.4702 21.9645 63.7642 21.8892 63.9858 21.7386C64.2102 21.5881 64.3224 21.402 64.3224 21.1804C64.3224 20.9929 64.25 20.8381 64.1051 20.7159C63.9631 20.5937 63.7415 20.5 63.4403 20.4347L62.3239 20.2003C61.696 20.0696 61.2315 19.8494 60.9304 19.5398C60.6293 19.2273 60.4801 18.8324 60.483 18.3551C60.4801 17.9517 60.5895 17.6023 60.8111 17.3068C61.0355 17.0085 61.3466 16.7784 61.7443 16.6165C62.1449 16.4517 62.6065 16.3693 63.1293 16.3693C63.8963 16.3693 64.5 16.5327 64.9403 16.8594C65.3835 17.1861 65.6577 17.6278 65.7628 18.1847ZM70.0732 23.1278C69.4169 23.1278 68.8501 22.9915 68.3729 22.7188C67.8984 22.4432 67.5334 22.054 67.2777 21.5511C67.022 21.0455 66.8942 20.4503 66.8942 19.7656C66.8942 19.0923 67.022 18.5014 67.2777 17.9929C67.5362 17.4815 67.897 17.0838 68.3601 16.7997C68.8232 16.5128 69.3672 16.3693 69.9922 16.3693C70.3956 16.3693 70.7763 16.4347 71.1342 16.5653C71.495 16.6932 71.8132 16.892 72.0888 17.1619C72.3672 17.4318 72.5859 17.7756 72.745 18.1932C72.9041 18.608 72.9837 19.1023 72.9837 19.6761V20.1491H67.6186V19.1094H71.505C71.5021 18.8139 71.4382 18.5511 71.3132 18.321C71.1882 18.0881 71.0135 17.9048 70.7891 17.7713C70.5675 17.6378 70.3089 17.571 70.0135 17.571C69.6982 17.571 69.4212 17.6477 69.1825 17.8011C68.9439 17.9517 68.7578 18.1506 68.6243 18.3977C68.4936 18.642 68.4268 18.9105 68.424 19.2031V20.1108C68.424 20.4915 68.4936 20.8182 68.6328 21.0909C68.772 21.3608 68.9666 21.5682 69.2166 21.7131C69.4666 21.8551 69.7592 21.9261 70.0945 21.9261C70.3189 21.9261 70.522 21.8949 70.7038 21.8324C70.8857 21.767 71.0433 21.6719 71.1768 21.5469C71.3104 21.4219 71.4112 21.267 71.4794 21.0824L72.9197 21.2443C72.8288 21.625 72.6555 21.9574 72.3999 22.2415C72.147 22.5227 71.8232 22.7415 71.4283 22.8977C71.0334 23.0511 70.5817 23.1278 70.0732 23.1278ZM82.0763 16.6719C82.0366 16.2997 81.869 16.0099 81.5735 15.8026C81.2809 15.5952 80.9002 15.4915 80.4315 15.4915C80.1019 15.4915 79.8192 15.5412 79.5835 15.6406C79.3477 15.7401 79.1673 15.875 79.0423 16.0455C78.9173 16.2159 78.8533 16.4105 78.8505 16.6293C78.8505 16.8111 78.8917 16.9687 78.9741 17.1023C79.0593 17.2358 79.1744 17.3494 79.3192 17.4432C79.4641 17.5341 79.6246 17.6108 79.8008 17.6733C79.9769 17.7358 80.1545 17.7884 80.3335 17.831L81.1516 18.0355C81.4812 18.1122 81.7979 18.2159 82.1019 18.3466C82.4087 18.4773 82.6829 18.642 82.9244 18.8409C83.1687 19.0398 83.3619 19.2798 83.5039 19.5611C83.646 19.8423 83.717 20.1719 83.717 20.5497C83.717 21.0611 83.5863 21.5114 83.3249 21.9006C83.0636 22.2869 82.6857 22.5895 82.1914 22.8082C81.6999 23.0241 81.1048 23.1321 80.4059 23.1321C79.7269 23.1321 79.1374 23.027 78.6374 22.8168C78.1403 22.6065 77.7511 22.2997 77.4698 21.8963C77.1914 21.4929 77.0408 21.0014 77.0181 20.4219H78.5735C78.5962 20.7259 78.69 20.9787 78.8548 21.1804C79.0195 21.3821 79.234 21.5327 79.4982 21.6321C79.7653 21.7315 80.0636 21.7812 80.3931 21.7812C80.7369 21.7812 81.038 21.7301 81.2965 21.6278C81.5579 21.5227 81.7624 21.3778 81.9102 21.1932C82.0579 21.0057 82.1332 20.7869 82.136 20.5369C82.1332 20.3097 82.0664 20.1222 81.9357 19.9744C81.805 19.8239 81.6218 19.6989 81.386 19.5994C81.1531 19.4972 80.8803 19.4062 80.5678 19.3267L79.5749 19.071C78.8562 18.8864 78.288 18.6065 77.8704 18.2315C77.4556 17.8537 77.2482 17.3523 77.2482 16.7273C77.2482 16.2131 77.3874 15.7628 77.6658 15.3764C77.9471 14.9901 78.3292 14.6903 78.8121 14.4773C79.2951 14.2614 79.842 14.1534 80.4528 14.1534C81.0721 14.1534 81.6147 14.2614 82.0806 14.4773C82.5494 14.6903 82.9173 14.9872 83.1843 15.3679C83.4513 15.7457 83.5891 16.1804 83.5977 16.6719H82.0763ZM86.6009 19.1648V23H85.0582V14.2727H86.5668V17.5668H86.6435C86.7969 17.1974 87.0341 16.9062 87.3551 16.6932C87.679 16.4773 88.0909 16.3693 88.5909 16.3693C89.0455 16.3693 89.4418 16.4645 89.7798 16.6548C90.1179 16.8452 90.3793 17.1236 90.5639 17.4901C90.7514 17.8565 90.8452 18.304 90.8452 18.8324V23H89.3026V19.071C89.3026 18.6307 89.1889 18.2884 88.9616 18.044C88.7372 17.7969 88.4219 17.6733 88.0156 17.6733C87.7429 17.6733 87.4986 17.733 87.2827 17.8523C87.0696 17.9687 86.902 18.1378 86.7798 18.3594C86.6605 18.581 86.6009 18.8494 86.6009 19.1648ZM92.4176 23V16.4545H93.9602V23H92.4176ZM93.1932 15.5256C92.9489 15.5256 92.7386 15.4446 92.5625 15.2827C92.3864 15.1179 92.2983 14.9205 92.2983 14.6903C92.2983 14.4574 92.3864 14.2599 92.5625 14.098C92.7386 13.9332 92.9489 13.8509 93.1932 13.8509C93.4403 13.8509 93.6506 13.9332 93.8239 14.098C94 14.2599 94.0881 14.4574 94.0881 14.6903C94.0881 14.9205 94 15.1179 93.8239 15.2827C93.6506 15.4446 93.4403 15.5256 93.1932 15.5256ZM98.8619 16.4545V17.6477H94.9925V16.4545H98.8619ZM95.9599 23V15.8366C95.9599 15.3963 96.0508 15.0298 96.2326 14.7372C96.4173 14.4446 96.6644 14.2259 96.9741 14.081C97.2837 13.9361 97.6275 13.8636 98.0053 13.8636C98.2724 13.8636 98.5096 13.8849 98.717 13.9276C98.9244 13.9702 99.0778 14.0085 99.1772 14.0426L98.8704 15.2358C98.805 15.2159 98.7227 15.196 98.6232 15.1761C98.5238 15.1534 98.413 15.142 98.2908 15.142C98.0039 15.142 97.8008 15.2116 97.6815 15.3509C97.565 15.4872 97.5067 15.6832 97.5067 15.9389V23H95.9599ZM103.338 16.4545V17.6477H99.5756V16.4545H103.338ZM100.505 14.8864H102.047V21.0312C102.047 21.2386 102.078 21.3977 102.141 21.5085C102.206 21.6165 102.292 21.6903 102.397 21.7301C102.502 21.7699 102.618 21.7898 102.746 21.7898C102.843 21.7898 102.931 21.7827 103.01 21.7685C103.093 21.7543 103.155 21.7415 103.198 21.7301L103.458 22.9361C103.375 22.9645 103.257 22.9957 103.104 23.0298C102.953 23.0639 102.769 23.0838 102.55 23.0895C102.164 23.1009 101.816 23.0426 101.506 22.9148C101.196 22.7841 100.951 22.5824 100.769 22.3097C100.59 22.0369 100.502 21.696 100.505 21.2869V14.8864Z" fill="#F1416C"/>
</svg>
