<svg width="43" height="42" viewBox="0 0 43 42" fill="none" xmlns="http://www.w3.org/2000/svg">
<rect x="0.5" width="42" height="42" rx="21" fill="#FFEBF1"/>
<g clip-path="url(#clip0_256_13887)">
<path d="M7.78711 19.3123C10.398 19.3123 12.9648 19.3123 15.5537 19.3123C15.5537 19.1872 15.5537 19.0843 15.5537 18.9739C15.5537 17.7751 15.5611 16.5836 15.5464 15.3848C15.4949 10.6484 12.2073 10.2365 11.9646 10.2071C11.6925 10.1924 11.4204 10.1997 11.1409 10.2439C9.10361 10.5748 7.78711 12.1414 7.78711 14.2154C7.78711 15.8114 7.78711 17.4074 7.78711 19.0107C7.78711 19.1063 7.78711 19.2093 7.78711 19.3123ZM10.8026 13.6491C11.3762 13.6491 11.9352 13.6491 12.5162 13.6491C12.5162 14.2081 12.5162 14.767 12.5162 15.3554C11.9573 15.3554 11.3909 15.3554 10.8026 15.3554C10.8026 14.7817 10.8026 14.2301 10.8026 13.6491Z" fill="black"/>
<path d="M6.5 25.0562C9.98615 25.0562 13.4576 25.0562 16.9437 25.0562C16.9437 23.7323 16.9437 22.4232 16.9437 21.1067C13.4576 21.1067 9.9935 21.1067 6.5 21.1067C6.5 22.4379 6.5 23.7323 6.5 25.0562Z" fill="black"/>
<path d="M30.9473 16.3115C30.9914 16.3409 31.0061 16.3557 31.0208 16.3557C32.8374 16.3557 34.6541 16.3483 36.478 16.3483C36.4854 16.3336 36.4927 16.3115 36.5001 16.2968C36.4927 16.2012 36.478 16.1056 36.478 16.01C36.478 14.3993 36.478 12.9283 36.478 11.6118C36.478 11.4868 36.4707 11.3618 36.4707 11.1338C36.2795 11.2441 36.125 11.2956 36.022 11.3986C34.6099 12.7592 33.1978 14.1345 31.7857 15.5025C31.5062 15.7673 31.2341 16.0394 30.9473 16.3115Z" fill="#F1416C"/>
<path d="M13.546 16.4514C13.6195 16.2748 13.6931 16.1866 13.9063 16.2013C14.1858 16.2234 14.4727 16.1939 14.7595 16.2086C14.9654 16.2234 15.1052 16.1498 15.2449 16.0101C15.9951 15.2672 16.76 14.5391 17.5175 13.8036C18.4369 12.9137 19.3562 12.0164 20.327 11.075C20.1579 11.0677 20.0623 11.0677 19.9667 11.0677C17.8264 11.0677 15.6788 11.0677 13.5386 11.0603C13.3842 11.0603 13.1929 10.9868 13.0753 10.8838C12.8105 10.6558 12.7664 11.4428 12.4722 11.2883C12.6855 11.3913 15.3258 12.0606 13.546 16.4514Z" fill="black"/>
<path d="M24.2617 16.2086C25.5488 16.2086 26.7844 16.2013 28.0126 16.216C28.2553 16.216 28.4319 16.1498 28.6084 15.9733C29.4468 15.1569 30.2926 14.3405 31.1384 13.5241C31.9621 12.7225 32.7932 11.9208 33.6684 11.0677C32.3519 11.0677 31.109 11.075 29.866 11.0603C29.6307 11.0603 29.4615 11.1339 29.2997 11.2957C27.6964 12.8622 26.0857 14.4141 24.475 15.9806C24.4088 16.0321 24.3573 16.1057 24.2617 16.2086Z" fill="black"/>
<path d="M17.6133 16.2011C17.753 16.2011 17.8486 16.2085 17.9516 16.2085C19.1063 16.2085 20.261 16.2085 21.4157 16.2158C21.6143 16.2158 21.7614 16.157 21.9085 16.0173C23.5191 14.4433 25.1372 12.8768 26.7552 11.3102C26.8214 11.244 26.8803 11.1778 26.9612 11.0896C26.9023 11.0749 26.8803 11.0602 26.8508 11.0602C25.5785 11.0602 24.3061 11.0528 23.0337 11.0602C22.9234 11.0602 22.7984 11.1411 22.7101 11.222C21.0627 12.8106 19.4152 14.4066 17.7751 16.0025C17.7236 16.054 17.6868 16.1129 17.6133 16.2011Z" fill="#F1416C"/>
<path d="M29.2948 24.8714C29.2948 24.5459 29.1714 24.2246 28.9246 23.9992C28.4055 23.5235 27.6524 23.6612 27.0098 23.6487C26.1546 23.632 25.2908 23.6445 24.4313 23.6445C24.2058 23.6445 21.7506 23.6445 21.7506 23.6445C21.7506 23.4609 21.7506 23.2898 21.7506 23.1187C21.7506 22.7307 21.7464 22.3384 21.7506 21.9503C21.7634 20.7026 22.657 19.8305 23.9292 19.8263C24.3249 19.8263 24.7249 19.8263 25.1206 19.8263C26.2482 19.8346 27.163 20.6776 27.2098 21.7792C27.2098 21.821 27.2141 21.8627 27.2141 21.9086H28.2353C28.2353 21.8794 28.2353 21.8502 28.2353 21.8251C28.2098 20.4147 27.2013 19.1377 25.7929 18.9041C25.0057 18.7747 24.1717 18.7705 23.3803 18.8665C21.8315 19.0543 20.7592 20.3229 20.7294 21.871C20.7167 22.4135 20.7252 22.956 20.7294 23.4985C20.7294 23.6028 20.7209 23.6737 20.5933 23.7197C19.9805 23.9325 19.6997 24.3331 19.6997 24.9674C19.6997 26.7325 19.6997 28.5019 19.6997 30.267C19.6997 31.0933 20.2061 31.5982 21.0443 31.5982C22.2017 31.5982 23.3548 31.5982 24.5121 31.5982C25.6908 31.5982 26.8652 31.6024 28.0438 31.5982C28.7544 31.594 29.2948 31.0724 29.2948 30.388C29.3033 28.5436 29.299 26.7075 29.2948 24.8714ZM25.2398 27.7173C25.1291 27.7841 25.0866 27.8551 25.0866 27.9802C25.0951 28.3475 25.0908 28.7189 25.0908 29.0861C25.0908 29.4199 24.9249 29.591 24.6058 29.5868C24.2909 29.5868 24.1292 29.4199 24.1249 29.0819C24.1207 28.7272 24.1207 28.3725 24.1292 28.0178C24.1334 27.8843 24.0952 27.8091 23.9675 27.7424C23.4569 27.4753 23.2101 26.9161 23.3463 26.382C23.4909 25.8312 23.9973 25.4514 24.5845 25.4556C25.1504 25.4556 25.6567 25.8312 25.8057 26.3528C25.9546 26.8828 25.7376 27.4252 25.2398 27.7173Z" fill="black"/>
</g>
<defs>
<clipPath id="clip0_256_13887">
<rect width="30" height="30" fill="white" transform="translate(6.5 6)"/>
</clipPath>
</defs>
</svg>
